<svg version="1.1" width="277" height="278" viewBox="-1 -1 277 278" xmlns="http://www.w3.org/2000/svg" xmlns:xlink="http://www.w3.org/1999/xlink">
  <defs>
    <linearGradient id="grad_1" y2="1">
      <stop offset="0" stop-color="#99FFFF" stop-opacity="1"/>
      <stop offset="1" stop-color="#CCFFFF" stop-opacity="1"/>
    </linearGradient>
    <linearGradient id="grad_2" x2="1">
      <stop offset="0" stop-color="#FFFFFF" stop-opacity="1"/>
      <stop offset="1" stop-color="#FFFFFF" stop-opacity="0"/>
    </linearGradient>
    <linearGradient id="grad_3" x2="1">
      <stop offset="0" stop-color="#FFFFFF" stop-opacity="1"/>
      <stop offset="1" stop-color="#FFFFFF" stop-opacity="0"/>
    </linearGradient>
    <linearGradient id="grad_4" y2="1">
      <stop offset="0" stop-color="#FFFFFF" stop-opacity="1"/>
      <stop offset="1" stop-color="#FFFFFF" stop-opacity="0"/>
    </linearGradient>
    <linearGradient id="grad_5" y2="1">
      <stop offset="0" stop-color="#FFFFFF" stop-opacity="1"/>
      <stop offset="1" stop-color="#FFFFFF" stop-opacity="0"/>
    </linearGradient>
    <linearGradient id="grad_6" y2="1">
      <stop offset="0" stop-color="#FFFFFF" stop-opacity="0"/>
      <stop offset="1" stop-color="#FFFFFF" stop-opacity="1"/>
    </linearGradient>
    <radialGradient id="grad_7" cx="0.3337" cy="0.9173" r="1.19249">
      <stop offset="0" stop-color="#FFFFFF" stop-opacity="1"/>
      <stop offset="1" stop-color="#FFFFFF" stop-opacity="0"/>
    </radialGradient>
    <linearGradient id="grad_8" y2="1">
      <stop offset="0" stop-color="#99FFFF" stop-opacity="1"/>
      <stop offset="1" stop-color="#CCFFFF" stop-opacity="1"/>
    </linearGradient>
    <linearGradient id="grad_9" y2="1">
      <stop offset="0" stop-color="#99FFFF" stop-opacity="1"/>
      <stop offset="1" stop-color="#CCFFFF" stop-opacity="1"/>
    </linearGradient>
  </defs>
  <!-- Exported by Scratch - http://scratch.mit.edu/ -->
  <path id="ID0.4356720531359315" fill="url(#grad_1)" stroke="#FFFFFF" stroke-width="2" d="M 366 169 C 373.863 169 380.988 172.222 386.147 177.426 C 391.306 182.631 394.500 189.818 394.500 197.750 C 394.500 205.682 391.306 212.869 386.147 218.074 C 380.988 223.278 373.863 226.500 366 226.500 C 358.137 226.500 351.012 223.278 345.853 218.074 C 340.694 212.869 337.500 205.682 337.500 197.750 C 337.500 189.818 340.694 182.631 345.853 177.426 C 351.012 172.222 358.137 169 366 169 Z " transform="matrix(4.6519598960876465, 0, 0, 4.6519598960876465, -1564.7, -781.1)"/>
  <path id="ID0.018003668170422316" fill="url(#grad_2)" stroke="url(#grad_3)" stroke-width="9" d="M 338.500 56 C 358.502 56 376.627 61.379 389.752 70.068 C 402.876 78.757 411 90.757 411 104 C 411 117.243 402.876 129.243 389.752 137.932 C 376.627 146.621 358.502 152 338.500 152 C 318.498 152 300.373 146.621 287.248 137.932 C 274.124 129.243 266 117.243 266 104 C 266 90.757 274.124 78.757 287.248 70.068 C 300.373 61.379 318.498 56 338.500 56 Z " transform="matrix(0.892612874507904, 0.4662582576274872, -0.41274088621139526, 0.7907558083534241, -72.2, -130.4)"/>
  <path id="ID0.34836619114503264" fill="url(#grad_4)" stroke="url(#grad_5)" stroke-width="9" d="M 285 179 C 295.760 179 305.510 184.939 312.570 194.533 C 319.630 204.128 324 217.378 324 232 C 324 246.622 319.630 259.872 312.570 269.467 C 305.510 279.061 295.760 285 285 285 C 274.240 285 264.490 279.061 257.430 269.467 C 250.370 259.872 246 246.622 246 232 C 246 217.378 250.370 204.128 257.430 194.533 C 264.490 184.939 274.240 179 285 179 Z " transform="matrix(0.5372182726860046, 1.003072738647461, -1.2950997352600098, 0.6940029859542847, 282.75, -256.4)"/>
  <path id="ID0.4412481370382011" fill="url(#grad_6)" stroke="url(#grad_7)" stroke-width="9" d="M 183.500 104 C 194.122 104 203.747 111.564 210.716 123.783 C 217.686 136.002 222 152.877 222 171.500 C 222 190.123 217.686 206.998 210.716 219.217 C 203.747 231.436 194.122 239 183.500 239 C 172.878 239 163.253 231.436 156.284 219.217 C 149.314 206.998 145 190.123 145 171.500 C 145 152.877 149.314 136.002 156.284 123.783 C 163.253 111.564 172.878 104 183.500 104 Z " transform="matrix(1.076472520828247, 0.3558363914489746, -0.3926798701286316, 1.187930941581726, -21.75, -162.35)"/>
  <path id="ID0.4356720531359315" fill="#FFFFFF" stroke="#99FFFF" stroke-width="6" d="M 366 169 C 373.863 169 380.988 172.222 386.147 177.426 C 391.306 182.631 394.500 189.818 394.500 197.750 C 394.500 205.682 391.306 212.869 386.147 218.074 C 380.988 223.278 373.863 226.500 366 226.500 C 358.137 226.500 351.012 223.278 345.853 218.074 C 340.694 212.869 337.500 205.682 337.500 197.750 C 337.500 189.818 340.694 182.631 345.853 177.426 C 351.012 172.222 358.137 169 366 169 Z " transform="matrix(1.6027761697769165, 0, 0, 1.6027761697769165, -428.15, -214.85)"/>
  <path id="ID0.4356720531359315" fill="#FFFFFF" stroke="url(#grad_8)" stroke-width="7" d="M 366 169 C 373.863 169 380.988 172.222 386.147 177.426 C 391.306 182.631 394.500 189.818 394.500 197.750 C 394.500 205.682 391.306 212.869 386.147 218.074 C 380.988 223.278 373.863 226.500 366 226.500 C 358.137 226.500 351.012 223.278 345.853 218.074 C 340.694 212.869 337.500 205.682 337.500 197.750 C 337.500 189.818 340.694 182.631 345.853 177.426 C 351.012 172.222 358.137 169 366 169 Z " transform="matrix(1.6027761697769165, 0, 0, 1.6027761697769165, -421.2, -147.4)"/>
  <path id="ID0.4356720531359315" fill="#FFFFFF" stroke="url(#grad_9)" stroke-width="7" d="M 366 169 C 373.863 169 380.988 172.222 386.147 177.426 C 391.306 182.631 394.500 189.818 394.500 197.750 C 394.500 205.682 391.306 212.869 386.147 218.074 C 380.988 223.278 373.863 226.500 366 226.500 C 358.137 226.500 351.012 223.278 345.853 218.074 C 340.694 212.869 337.500 205.682 337.500 197.750 C 337.500 189.818 340.694 182.631 345.853 177.426 C 351.012 172.222 358.137 169 366 169 Z " transform="matrix(1.6027761697769165, 0, 0, 1.6027761697769165, -483.5, -169.05)"/>
</svg>