{
    "asset" : {
        "generator" : "Khronos glTF Blender I/O v1.2.75",
        "version" : "2.0"
    },
    "scene" : 0,
    "scenes" : [
        {
            "name" : "Scene",
            "nodes" : [
                0,
                1,
                2
            ]
        }
    ],
    "nodes" : [
        {
            "name" : "Light",
            "rotation" : [
                0.16907575726509094,
                0.7558803558349609,
                -0.27217137813568115,
                0.570947527885437
            ],
            "translation" : [
                4.076245307922363,
                5.903861999511719,
                -1.0054539442062378
            ]
        },
        {
            "name" : "Camera",
            "rotation" : [
                0.483536034822464,
                0.33687159419059753,
                -0.20870360732078552,
                0.7804827094078064
            ],
            "translation" : [
                7.358891487121582,
                4.958309173583984,
                6.925790786743164
            ]
        },
        {
            "mesh" : 0,
            "name" : "Sphere"
        }
    ],
    "materials" : [
        {
            "doubleSided" : true,
            "emissiveFactor" : [
                0,
                0,
                0
            ],
            "name" : "White",
            "pbrMetallicRoughness" : {
                "baseColorFactor" : [
                    0.800000011920929,
                    0.800000011920929,
                    0.800000011920929,
                    1
                ],
                "metallicFactor" : 0,
                "roughnessFactor" : 0
            }
        },
        {
            "doubleSided" : true,
            "emissiveFactor" : [
                0,
                0,
                0
            ],
            "name" : "Blue",
            "pbrMetallicRoughness" : {
                "baseColorFactor" : [
                    0.0005711240810342133,
                    0,
                    0.8000000715255737,
                    1
                ],
                "metallicFactor" : 0,
                "roughnessFactor" : 0
            }
        },
        {
            "doubleSided" : true,
            "emissiveFactor" : [
                0,
                0,
                0
            ],
            "name" : "Red",
            "pbrMetallicRoughness" : {
                "baseColorFactor" : [
                    0.8000000715255737,
                    0.005470938514918089,
                    0,
                    1
                ],
                "metallicFactor" : 0,
                "roughnessFactor" : 0
            }
        },
        {
            "doubleSided" : true,
            "emissiveFactor" : [
                0,
                0,
                0
            ],
            "name" : "Yellow",
            "pbrMetallicRoughness" : {
                "baseColorFactor" : [
                    0.8000000715255737,
                    0.7107172608375549,
                    0,
                    1
                ],
                "metallicFactor" : 0,
                "roughnessFactor" : 0
            }
        },
        {
            "doubleSided" : true,
            "emissiveFactor" : [
                0,
                0,
                0
            ],
            "name" : "Center",
            "pbrMetallicRoughness" : {
                "baseColorFactor" : [
                    0.6277381181716919,
                    0.6277381181716919,
                    0.6277381181716919,
                    1
                ],
                "metallicFactor" : 0,
                "roughnessFactor" : 1
            }
        }
    ],
    "meshes" : [
        {
            "name" : "Sphere",
            "primitives" : [
                {
                    "attributes" : {
                        "POSITION" : 0,
                        "NORMAL" : 1,
                        "TEXCOORD_0" : 2
                    },
                    "indices" : 3,
                    "material" : 0
                },
                {
                    "attributes" : {
                        "POSITION" : 4,
                        "NORMAL" : 5,
                        "TEXCOORD_0" : 6
                    },
                    "indices" : 7,
                    "material" : 1
                },
                {
                    "attributes" : {
                        "POSITION" : 8,
                        "NORMAL" : 9,
                        "TEXCOORD_0" : 10
                    },
                    "indices" : 11,
                    "material" : 2
                },
                {
                    "attributes" : {
                        "POSITION" : 12,
                        "NORMAL" : 13,
                        "TEXCOORD_0" : 14
                    },
                    "indices" : 15,
                    "material" : 3
                },
                {
                    "attributes" : {
                        "POSITION" : 16,
                        "NORMAL" : 17,
                        "TEXCOORD_0" : 18
                    },
                    "indices" : 19,
                    "material" : 4
                }
            ]
        }
    ],
    "accessors" : [
        {
            "bufferView" : 0,
            "componentType" : 5126,
            "count" : 360,
            "max" : [
                0.9807854890823364,
                0.9807852506637573,
                1.0000003576278687
            ],
            "min" : [
                -0.9999998211860657,
                -0.9807853102684021,
                -1
            ],
            "type" : "VEC3"
        },
        {
            "bufferView" : 1,
            "componentType" : 5126,
            "count" : 360,
            "type" : "VEC3"
        },
        {
            "bufferView" : 2,
            "componentType" : 5126,
            "count" : 360,
            "type" : "VEC2"
        },
        {
            "bufferView" : 3,
            "componentType" : 5123,
            "count" : 1680,
            "type" : "SCALAR"
        },
        {
            "bufferView" : 4,
            "componentType" : 5126,
            "count" : 75,
            "max" : [
                1.000000238418579,
                0.9807852506637573,
                0.19509074091911316
            ],
            "min" : [
                0.16221173107624054,
                -0.9807853102684021,
                -0.5555700063705444
            ],
            "type" : "VEC3"
        },
        {
            "bufferView" : 5,
            "componentType" : 5126,
            "count" : 75,
            "type" : "VEC3"
        },
        {
            "bufferView" : 6,
            "componentType" : 5126,
            "count" : 75,
            "type" : "VEC2"
        },
        {
            "bufferView" : 7,
            "componentType" : 5123,
            "count" : 336,
            "type" : "SCALAR"
        },
        {
            "bufferView" : 8,
            "componentType" : 5126,
            "count" : 75,
            "max" : [
                6.356849979738399e-08,
                0.9807852506637573,
                1.0000003576278687
            ],
            "min" : [
                -0.70710688829422,
                -0.9807853102684021,
                0.13794997334480286
            ],
            "type" : "VEC3"
        },
        {
            "bufferView" : 9,
            "componentType" : 5126,
            "count" : 75,
            "type" : "VEC3"
        },
        {
            "bufferView" : 10,
            "componentType" : 5126,
            "count" : 75,
            "type" : "VEC2"
        },
        {
            "bufferView" : 11,
            "componentType" : 5123,
            "count" : 336,
            "type" : "SCALAR"
        },
        {
            "bufferView" : 12,
            "componentType" : 5126,
            "count" : 75,
            "max" : [
                -0.038060203194618225,
                0.9807852506637573,
                -0.10838600248098373
            ],
            "min" : [
                -0.8314692378044128,
                -0.9807853102684021,
                -0.98078453540802
            ],
            "type" : "VEC3"
        },
        {
            "bufferView" : 13,
            "componentType" : 5126,
            "count" : 75,
            "type" : "VEC3"
        },
        {
            "bufferView" : 14,
            "componentType" : 5126,
            "count" : 75,
            "type" : "VEC2"
        },
        {
            "bufferView" : 15,
            "componentType" : 5123,
            "count" : 336,
            "type" : "SCALAR"
        },
        {
            "bufferView" : 16,
            "componentType" : 5126,
            "count" : 130,
            "max" : [
                0.19509060680866241,
                1,
                0.19509084522724152
            ],
            "min" : [
                -0.19509045779705048,
                -1,
                -0.19509032368659973
            ],
            "type" : "VEC3"
        },
        {
            "bufferView" : 17,
            "componentType" : 5126,
            "count" : 130,
            "type" : "VEC3"
        },
        {
            "bufferView" : 18,
            "componentType" : 5126,
            "count" : 130,
            "type" : "VEC2"
        },
        {
            "bufferView" : 19,
            "componentType" : 5123,
            "count" : 192,
            "type" : "SCALAR"
        }
    ],
    "bufferViews" : [
        {
            "buffer" : 0,
            "byteLength" : 4320,
            "byteOffset" : 0
        },
        {
            "buffer" : 0,
            "byteLength" : 4320,
            "byteOffset" : 4320
        },
        {
            "buffer" : 0,
            "byteLength" : 2880,
            "byteOffset" : 8640
        },
        {
            "buffer" : 0,
            "byteLength" : 3360,
            "byteOffset" : 11520
        },
        {
            "buffer" : 0,
            "byteLength" : 900,
            "byteOffset" : 14880
        },
        {
            "buffer" : 0,
            "byteLength" : 900,
            "byteOffset" : 15780
        },
        {
            "buffer" : 0,
            "byteLength" : 600,
            "byteOffset" : 16680
        },
        {
            "buffer" : 0,
            "byteLength" : 672,
            "byteOffset" : 17280
        },
        {
            "buffer" : 0,
            "byteLength" : 900,
            "byteOffset" : 17952
        },
        {
            "buffer" : 0,
            "byteLength" : 900,
            "byteOffset" : 18852
        },
        {
            "buffer" : 0,
            "byteLength" : 600,
            "byteOffset" : 19752
        },
        {
            "buffer" : 0,
            "byteLength" : 672,
            "byteOffset" : 20352
        },
        {
            "buffer" : 0,
            "byteLength" : 900,
            "byteOffset" : 21024
        },
        {
            "buffer" : 0,
            "byteLength" : 900,
            "byteOffset" : 21924
        },
        {
            "buffer" : 0,
            "byteLength" : 600,
            "byteOffset" : 22824
        },
        {
            "buffer" : 0,
            "byteLength" : 672,
            "byteOffset" : 23424
        },
        {
            "buffer" : 0,
            "byteLength" : 1560,
            "byteOffset" : 24096
        },
        {
            "buffer" : 0,
            "byteLength" : 1560,
            "byteOffset" : 25656
        },
        {
            "buffer" : 0,
            "byteLength" : 1040,
            "byteOffset" : 27216
        },
        {
            "buffer" : 0,
            "byteLength" : 384,
            "byteOffset" : 28256
        }
    ],
    "buffers" : [
        {
            "byteLength" : 28640,
            "uri" : "data:application/octet-stream;base64,"
        }
    ]
}
