{
    "asset" : {
        "generator" : "Khronos glTF Blender I/O v3.3.32",
        "version" : "2.0"
    },
    "scene" : 0,
    "scenes" : [
        {
            "name" : "Scene",
            "nodes" : [
                0
            ]
        }
    ],
    "nodes" : [
        {
            "mesh" : 0,
            "name" : "Hair",
            "scale" : [
                0.29581230878829956,
                0.29581230878829956,
                0.29581230878829956
            ],
            "translation" : [
                0,
                1.2511322498321533,
                0
            ]
        }
    ],
    "materials" : [
        {
            "doubleSided" : true,
            "name" : "Hair",
            "pbrMetallicRoughness" : {
                "baseColorFactor" : [
                    0,
                    0,
                    0,
                    1
                ],
                "metallicFactor" : 0,
                "roughnessFactor" : 0.5
            }
        }
    ],
    "meshes" : [
        {
            "name" : "Sphere.001",
            "primitives" : [
                {
                    "attributes" : {
                        "POSITION" : 0,
                        "NORMAL" : 1,
                        "TEXCOORD_0" : 2
                    },
                    "indices" : 3,
                    "material" : 0
                }
            ]
        }
    ],
    "accessors" : [
        {
            "bufferView" : 0,
            "componentType" : 5126,
            "count" : 2604,
            "max" : [
                1.5825499296188354,
                1,
                0.9743643999099731
            ],
            "min" : [
                -1.5825499296188354,
                -1.0038542747497559,
                -0.9744384288787842
            ],
            "type" : "VEC3"
        },
        {
            "bufferView" : 1,
            "componentType" : 5126,
            "count" : 2604,
            "type" : "VEC3"
        },
        {
            "bufferView" : 2,
            "componentType" : 5126,
            "count" : 2604,
            "type" : "VEC2"
        },
        {
            "bufferView" : 3,
            "componentType" : 5123,
            "count" : 13404,
            "type" : "SCALAR"
        }
    ],
    "bufferViews" : [
        {
            "buffer" : 0,
            "byteLength" : 31248,
            "byteOffset" : 0,
            "target" : 34962
        },
        {
            "buffer" : 0,
            "byteLength" : 31248,
            "byteOffset" : 31248,
            "target" : 34962
        },
        {
            "buffer" : 0,
            "byteLength" : 20832,
            "byteOffset" : 62496,
            "target" : 34962
        },
        {
            "buffer" : 0,
            "byteLength" : 26808,
            "byteOffset" : 83328,
            "target" : 34963
        }
    ],
    "buffers" : [
        {
            "byteLength" : 110136,
            "uri" : "data:application/octet-stream;base64,"
        }
    ]
}
