{
	"asset":{
		"generator":"Khronos glTF Blender I/O v3.5.30",
		"version":"2.0"
	},
	"extensionsUsed":[
		"KHR_materials_specular",
		"KHR_materials_ior"
	],
	"scene":0,
	"scenes":[
		{
			"name":"Scene",
			"nodes":[
				2
			]
		}
	],
	"nodes":[
		{
			"mesh":0,
			"name":"bolt",
			"scale":[
				0.013824407011270523,
				0.013824407011270523,
				0.013824407011270523
			],
			"translation":[
				0,
				0.15538254380226135,
				-0.07946863770484924
			]
		},
		{
			"mesh":1,
			"name":"Mag",
			"rotation":[
				0.10703808069229126,
				0,
				0,
				0.9942549467086792
			],
			"scale":[
				0.04800015687942505,
				0.04800015687942505,
				0.04800015687942505
			],
			"translation":[
				-0.000382252037525177,
				-0.024255692958831787,
				0.18678271770477295
			]
		},
		{
			"children":[
				0,
				1
			],
			"mesh":2,
			"name":"CR1"
		}
	],
	"animations":[
		{
			"channels":[
				{
					"sampler":0,
					"target":{
						"node":2,
						"path":"translation"
					}
				},
				{
					"sampler":1,
					"target":{
						"node":2,
						"path":"rotation"
					}
				},
				{
					"sampler":2,
					"target":{
						"node":2,
						"path":"scale"
					}
				}
			],
			"name":"CR1",
			"samplers":[
				{
					"input":61,
					"interpolation":"LINEAR",
					"output":62
				},
				{
					"input":61,
					"interpolation":"LINEAR",
					"output":63
				},
				{
					"input":61,
					"interpolation":"LINEAR",
					"output":64
				}
			]
		},
		{
			"channels":[
				{
					"sampler":0,
					"target":{
						"node":0,
						"path":"translation"
					}
				},
				{
					"sampler":1,
					"target":{
						"node":0,
						"path":"rotation"
					}
				},
				{
					"sampler":2,
					"target":{
						"node":0,
						"path":"scale"
					}
				}
			],
			"name":"bolt",
			"samplers":[
				{
					"input":61,
					"interpolation":"LINEAR",
					"output":65
				},
				{
					"input":61,
					"interpolation":"LINEAR",
					"output":66
				},
				{
					"input":61,
					"interpolation":"LINEAR",
					"output":67
				}
			]
		},
		{
			"channels":[
				{
					"sampler":0,
					"target":{
						"node":1,
						"path":"translation"
					}
				},
				{
					"sampler":1,
					"target":{
						"node":1,
						"path":"rotation"
					}
				},
				{
					"sampler":2,
					"target":{
						"node":1,
						"path":"scale"
					}
				}
			],
			"name":"Mag",
			"samplers":[
				{
					"input":61,
					"interpolation":"LINEAR",
					"output":68
				},
				{
					"input":61,
					"interpolation":"LINEAR",
					"output":69
				},
				{
					"input":61,
					"interpolation":"LINEAR",
					"output":70
				}
			]
		}
	],
	"materials":[
		{
			"doubleSided":true,
			"name":"Material.034",
			"pbrMetallicRoughness":{
				"baseColorFactor":[
					0,
					0.8000000715255737,
					0.4680279791355133,
					1
				],
				"metallicFactor":0,
				"roughnessFactor":0.5
			}
		},
		{
			"doubleSided":true,
			"name":"Material.035",
			"pbrMetallicRoughness":{
				"baseColorFactor":[
					0.13676291704177856,
					0,
					0.8000000715255737,
					1
				],
				"metallicFactor":0,
				"roughnessFactor":0.5
			}
		},
		{
			"doubleSided":true,
			"name":"Material.031",
			"pbrMetallicRoughness":{
				"baseColorFactor":[
					0.8000000715255737,
					0,
					0.6142526268959045,
					1
				],
				"metallicFactor":0,
				"roughnessFactor":0.5
			}
		},
		{
			"doubleSided":true,
			"extensions":{
				"KHR_materials_specular":{
					"specularColorFactor":[
						1.0363019501745634,
						1.0363019501745634,
						1.0363019501745634
					]
				},
				"KHR_materials_ior":{
					"ior":1.4500000476837158
				}
			},
			"name":"Material.026",
			"pbrMetallicRoughness":{
				"baseColorFactor":[
					0.02759428508579731,
					0,
					0.8000000715255737,
					1
				],
				"metallicFactor":0
			}
		},
		{
			"doubleSided":true,
			"name":"Material.032",
			"pbrMetallicRoughness":{
				"baseColorFactor":[
					0,
					0.8000000715255737,
					0.7219991087913513,
					1
				],
				"metallicFactor":0,
				"roughnessFactor":0.5
			}
		},
		{
			"doubleSided":true,
			"name":"Material.033",
			"pbrMetallicRoughness":{
				"baseColorFactor":[
					0.8000000715255737,
					0.10947774350643158,
					0,
					1
				],
				"metallicFactor":0,
				"roughnessFactor":0.5
			}
		},
		{
			"doubleSided":true,
			"name":"Material.028",
			"pbrMetallicRoughness":{
				"baseColorFactor":[
					0.8000000715255737,
					0.0036367694847285748,
					0,
					1
				],
				"metallicFactor":0,
				"roughnessFactor":0.5
			}
		},
		{
			"doubleSided":true,
			"name":"Material.030",
			"pbrMetallicRoughness":{
				"baseColorFactor":[
					0.025163166224956512,
					0.8000000715255737,
					0,
					1
				],
				"metallicFactor":0,
				"roughnessFactor":0.5
			}
		},
		{
			"doubleSided":true,
			"name":"Material.029",
			"pbrMetallicRoughness":{
				"baseColorFactor":[
					0.5654035806655884,
					0.8000000715255737,
					0,
					1
				],
				"metallicFactor":0,
				"roughnessFactor":0.5
			}
		},
		{
			"doubleSided":true,
			"name":"Material.023",
			"pbrMetallicRoughness":{
				"baseColorFactor":[
					0.014669513329863548,
					0.014669513329863548,
					0.014669513329863548,
					1
				],
				"metallicFactor":0,
				"roughnessFactor":0.5
			}
		},
		{
			"doubleSided":true,
			"name":"Material.027",
			"pbrMetallicRoughness":{
				"baseColorFactor":[
					0.8000000715255737,
					0.00415434455499053,
					0,
					1
				],
				"metallicFactor":0,
				"roughnessFactor":0.5
			}
		},
		{
			"doubleSided":true,
			"extensions":{
				"KHR_materials_specular":{
					"specularColorFactor":[
						2.371357614441398,
						2.371357614441398,
						2.371357614441398
					]
				},
				"KHR_materials_ior":{
					"ior":1.4500000476837158
				}
			},
			"name":"Material.024",
			"pbrMetallicRoughness":{
				"metallicFactor":0
			}
		},
		{
			"doubleSided":true,
			"name":"Material.036",
			"pbrMetallicRoughness":{
				"baseColorFactor":[
					0,
					0.20243462920188904,
					0.8000000715255737,
					1
				],
				"metallicFactor":0,
				"roughnessFactor":0.5
			}
		},
		{
			"doubleSided":true,
			"name":"Material.038",
			"pbrMetallicRoughness":{
				"baseColorFactor":[
					0.8000000715255737,
					0.3966502249240875,
					0.29676130414009094,
					1
				],
				"metallicFactor":0,
				"roughnessFactor":0.5
			}
		},
		{
			"doubleSided":true,
			"name":"Material.037",
			"pbrMetallicRoughness":{
				"baseColorFactor":[
					0.25949782133102417,
					0.8000000715255737,
					0,
					1
				],
				"metallicFactor":0,
				"roughnessFactor":0.5
			}
		}
	],
	"meshes":[
		{
			"name":"Cube.012",
			"primitives":[
				{
					"attributes":{
						"POSITION":0,
						"TEXCOORD_0":1,
						"NORMAL":2
					},
					"indices":3
				}
			]
		},
		{
			"name":"Cylinder.006",
			"primitives":[
				{
					"attributes":{
						"POSITION":4,
						"TEXCOORD_0":5,
						"NORMAL":6
					},
					"indices":7,
					"material":0
				},
				{
					"attributes":{
						"POSITION":8,
						"TEXCOORD_0":9,
						"NORMAL":10
					},
					"indices":11,
					"material":1
				}
			]
		},
		{
			"name":"Cylinder",
			"primitives":[
				{
					"attributes":{
						"POSITION":12,
						"TEXCOORD_0":13,
						"NORMAL":14
					},
					"indices":15,
					"material":2
				},
				{
					"attributes":{
						"POSITION":16,
						"TEXCOORD_0":17,
						"NORMAL":18
					},
					"indices":19,
					"material":3
				},
				{
					"attributes":{
						"POSITION":20,
						"TEXCOORD_0":21,
						"NORMAL":22
					},
					"indices":15,
					"material":4
				},
				{
					"attributes":{
						"POSITION":23,
						"TEXCOORD_0":24,
						"NORMAL":25
					},
					"indices":15,
					"material":5
				},
				{
					"attributes":{
						"POSITION":26,
						"TEXCOORD_0":27,
						"NORMAL":28
					},
					"indices":29,
					"material":6
				},
				{
					"attributes":{
						"POSITION":30,
						"TEXCOORD_0":31,
						"NORMAL":32
					},
					"indices":33,
					"material":7
				},
				{
					"attributes":{
						"POSITION":34,
						"TEXCOORD_0":35,
						"NORMAL":36
					},
					"indices":37,
					"material":8
				},
				{
					"attributes":{
						"POSITION":38,
						"TEXCOORD_0":39,
						"NORMAL":40
					},
					"indices":41,
					"material":9
				},
				{
					"attributes":{
						"POSITION":42,
						"TEXCOORD_0":43,
						"NORMAL":44
					},
					"indices":45,
					"material":10
				},
				{
					"attributes":{
						"POSITION":46,
						"TEXCOORD_0":47,
						"NORMAL":48
					},
					"indices":49,
					"material":11
				},
				{
					"attributes":{
						"POSITION":50,
						"TEXCOORD_0":51,
						"NORMAL":52
					},
					"indices":15,
					"material":12
				},
				{
					"attributes":{
						"POSITION":53,
						"TEXCOORD_0":54,
						"NORMAL":55
					},
					"indices":56,
					"material":13
				},
				{
					"attributes":{
						"POSITION":57,
						"TEXCOORD_0":58,
						"NORMAL":59
					},
					"indices":60,
					"material":14
				}
			]
		}
	],
	"accessors":[
		{
			"bufferView":0,
			"componentType":5126,
			"count":266,
			"max":[
				1.2521355152130127,
				0.3280835449695587,
				1.000000238418579
			],
			"min":[
				-1.2521355152130127,
				-0.3280835449695587,
				-1.517403483390808
			],
			"type":"VEC3"
		},
		{
			"bufferView":1,
			"componentType":5126,
			"count":266,
			"type":"VEC2"
		},
		{
			"bufferView":2,
			"componentType":5126,
			"count":266,
			"type":"VEC3"
		},
		{
			"bufferView":3,
			"componentType":5123,
			"count":492,
			"type":"SCALAR"
		},
		{
			"bufferView":4,
			"componentType":5126,
			"count":86,
			"max":[
				0.9510566592216492,
				1.515250325202942,
				1.0000001192092896
			],
			"min":[
				-0.9510566592216492,
				-1.0000001192092896,
				-1.0000001192092896
			],
			"type":"VEC3"
		},
		{
			"bufferView":5,
			"componentType":5126,
			"count":86,
			"type":"VEC2"
		},
		{
			"bufferView":6,
			"componentType":5126,
			"count":86,
			"type":"VEC3"
		},
		{
			"bufferView":7,
			"componentType":5123,
			"count":288,
			"type":"SCALAR"
		},
		{
			"bufferView":8,
			"componentType":5126,
			"count":22,
			"max":[
				0.9510566592216492,
				0.7562279105186462,
				1.0000001192092896
			],
			"min":[
				-0.9510566592216492,
				-0.756232738494873,
				-1.0000001192092896
			],
			"type":"VEC3"
		},
		{
			"bufferView":9,
			"componentType":5126,
			"count":22,
			"type":"VEC2"
		},
		{
			"bufferView":10,
			"componentType":5126,
			"count":22,
			"type":"VEC3"
		},
		{
			"bufferView":11,
			"componentType":5123,
			"count":60,
			"type":"SCALAR"
		},
		{
			"bufferView":12,
			"componentType":5126,
			"count":42,
			"max":[
				0.01827166974544525,
				0.10187987983226776,
				0.04233846440911293
			],
			"min":[
				-0.01827166974544525,
				-0.0671260878443718,
				-0.05288616940379143
			],
			"type":"VEC3"
		},
		{
			"bufferView":13,
			"componentType":5126,
			"count":42,
			"type":"VEC2"
		},
		{
			"bufferView":14,
			"componentType":5126,
			"count":42,
			"type":"VEC3"
		},
		{
			"bufferView":15,
			"componentType":5123,
			"count":108,
			"type":"SCALAR"
		},
		{
			"bufferView":16,
			"componentType":5126,
			"count":62,
			"max":[
				0.05341547727584839,
				0.15210199356079102,
				0.29772645235061646
			],
			"min":[
				-0.053415536880493164,
				-0.07026037573814392,
				-0.22851485013961792
			],
			"type":"VEC3"
		},
		{
			"bufferView":17,
			"componentType":5126,
			"count":62,
			"type":"VEC2"
		},
		{
			"bufferView":18,
			"componentType":5126,
			"count":62,
			"type":"VEC3"
		},
		{
			"bufferView":19,
			"componentType":5123,
			"count":276,
			"type":"SCALAR"
		},
		{
			"bufferView":20,
			"componentType":5126,
			"count":42,
			"max":[
				0.01734437234699726,
				0.1390453577041626,
				-0.06557847559452057
			],
			"min":[
				-0.01734534092247486,
				0.10257042944431305,
				-0.18646669387817383
			],
			"type":"VEC3"
		},
		{
			"bufferView":21,
			"componentType":5126,
			"count":42,
			"type":"VEC2"
		},
		{
			"bufferView":22,
			"componentType":5126,
			"count":42,
			"type":"VEC3"
		},
		{
			"bufferView":23,
			"componentType":5126,
			"count":42,
			"max":[
				0.007204362656921148,
				0.09664405882358551,
				-0.06557847559452057
			],
			"min":[
				-0.007205331232398748,
				0.08149280399084091,
				-0.18646669387817383
			],
			"type":"VEC3"
		},
		{
			"bufferView":24,
			"componentType":5126,
			"count":42,
			"type":"VEC2"
		},
		{
			"bufferView":25,
			"componentType":5126,
			"count":42,
			"type":"VEC3"
		},
		{
			"bufferView":26,
			"componentType":5126,
			"count":32,
			"max":[
				0.012736190110445023,
				0.13839195668697357,
				0.39761826395988464
			],
			"min":[
				-0.012737158685922623,
				0.11160768568515778,
				0.29490068554878235
			],
			"type":"VEC3"
		},
		{
			"bufferView":27,
			"componentType":5126,
			"count":32,
			"type":"VEC2"
		},
		{
			"bufferView":28,
			"componentType":5126,
			"count":32,
			"type":"VEC3"
		},
		{
			"bufferView":29,
			"componentType":5123,
			"count":84,
			"type":"SCALAR"
		},
		{
			"bufferView":30,
			"componentType":5126,
			"count":54,
			"max":[
				0.01776498183608055,
				0.14367952942848206,
				0.45542794466018677
			],
			"min":[
				-0.017765948548913002,
				0.1063201054930687,
				0.39761826395988464
			],
			"type":"VEC3"
		},
		{
			"bufferView":31,
			"componentType":5126,
			"count":54,
			"type":"VEC2"
		},
		{
			"bufferView":32,
			"componentType":5126,
			"count":54,
			"type":"VEC3"
		},
		{
			"bufferView":33,
			"componentType":5123,
			"count":204,
			"type":"SCALAR"
		},
		{
			"bufferView":34,
			"componentType":5126,
			"count":43,
			"max":[
				0.01003897376358509,
				0.11727449297904968,
				0.3868299424648285
			],
			"min":[
				-0.010039943270385265,
				0.08186202496290207,
				0.29616546630859375
			],
			"type":"VEC3"
		},
		{
			"bufferView":35,
			"componentType":5126,
			"count":43,
			"type":"VEC2"
		},
		{
			"bufferView":36,
			"componentType":5126,
			"count":43,
			"type":"VEC3"
		},
		{
			"bufferView":37,
			"componentType":5123,
			"count":168,
			"type":"SCALAR"
		},
		{
			"bufferView":38,
			"componentType":5126,
			"count":460,
			"max":[
				0.020811863243579865,
				0.16694727540016174,
				0.2956961989402771
			],
			"min":[
				-0.020811859518289566,
				0.1437482088804245,
				-0.08508020639419556
			],
			"type":"VEC3"
		},
		{
			"bufferView":39,
			"componentType":5126,
			"count":460,
			"type":"VEC2"
		},
		{
			"bufferView":40,
			"componentType":5126,
			"count":460,
			"type":"VEC3"
		},
		{
			"bufferView":41,
			"componentType":5123,
			"count":1020,
			"type":"SCALAR"
		},
		{
			"bufferView":42,
			"componentType":5126,
			"count":70,
			"max":[
				0.02441658265888691,
				0.19258593022823334,
				0.28748437762260437
			],
			"min":[
				-0.025181086733937263,
				0.14640332758426666,
				0.2378866970539093
			],
			"type":"VEC3"
		},
		{
			"bufferView":43,
			"componentType":5126,
			"count":70,
			"type":"VEC2"
		},
		{
			"bufferView":44,
			"componentType":5126,
			"count":70,
			"type":"VEC3"
		},
		{
			"bufferView":45,
			"componentType":5123,
			"count":156,
			"type":"SCALAR"
		},
		{
			"bufferView":46,
			"componentType":5126,
			"count":100,
			"max":[
				0.021656319499015808,
				0.1995062530040741,
				0.025151651352643967
			],
			"min":[
				-0.022420823574066162,
				0.1437106430530548,
				-0.03872338682413101
			],
			"type":"VEC3"
		},
		{
			"bufferView":47,
			"componentType":5126,
			"count":100,
			"type":"VEC2"
		},
		{
			"bufferView":48,
			"componentType":5126,
			"count":100,
			"type":"VEC3"
		},
		{
			"bufferView":49,
			"componentType":5123,
			"count":228,
			"type":"SCALAR"
		},
		{
			"bufferView":50,
			"componentType":5126,
			"count":42,
			"max":[
				0.01882382109761238,
				0.07000666856765747,
				0.22611211240291595
			],
			"min":[
				-0.019588325172662735,
				0.03632551059126854,
				0.1811843067407608
			],
			"type":"VEC3"
		},
		{
			"bufferView":51,
			"componentType":5126,
			"count":42,
			"type":"VEC2"
		},
		{
			"bufferView":52,
			"componentType":5126,
			"count":42,
			"type":"VEC3"
		},
		{
			"bufferView":53,
			"componentType":5126,
			"count":75,
			"max":[
				0.004566659685224295,
				0.06626439839601517,
				0.083741694688797
			],
			"min":[
				-0.0045666564255952835,
				0.00958167389035225,
				0.015714779496192932
			],
			"type":"VEC3"
		},
		{
			"bufferView":54,
			"componentType":5126,
			"count":75,
			"type":"VEC2"
		},
		{
			"bufferView":55,
			"componentType":5126,
			"count":75,
			"type":"VEC3"
		},
		{
			"bufferView":56,
			"componentType":5123,
			"count":288,
			"type":"SCALAR"
		},
		{
			"bufferView":57,
			"componentType":5126,
			"count":24,
			"max":[
				0.0015188349643722177,
				0.0579167902469635,
				0.04864777624607086
			],
			"min":[
				-0.002283324021846056,
				0.01574886403977871,
				0.006479848176240921
			],
			"type":"VEC3"
		},
		{
			"bufferView":58,
			"componentType":5126,
			"count":24,
			"type":"VEC2"
		},
		{
			"bufferView":59,
			"componentType":5126,
			"count":24,
			"type":"VEC3"
		},
		{
			"bufferView":60,
			"componentType":5123,
			"count":84,
			"type":"SCALAR"
		},
		{
			"bufferView":61,
			"componentType":5126,
			"count":241,
			"max":[
				10
			],
			"min":[
				0
			],
			"type":"SCALAR"
		},
		{
			"bufferView":62,
			"componentType":5126,
			"count":241,
			"type":"VEC3"
		},
		{
			"bufferView":63,
			"componentType":5126,
			"count":241,
			"type":"VEC4"
		},
		{
			"bufferView":64,
			"componentType":5126,
			"count":241,
			"type":"VEC3"
		},
		{
			"bufferView":65,
			"componentType":5126,
			"count":241,
			"type":"VEC3"
		},
		{
			"bufferView":66,
			"componentType":5126,
			"count":241,
			"type":"VEC4"
		},
		{
			"bufferView":67,
			"componentType":5126,
			"count":241,
			"type":"VEC3"
		},
		{
			"bufferView":68,
			"componentType":5126,
			"count":241,
			"type":"VEC3"
		},
		{
			"bufferView":69,
			"componentType":5126,
			"count":241,
			"type":"VEC4"
		},
		{
			"bufferView":70,
			"componentType":5126,
			"count":241,
			"type":"VEC3"
		}
	],
	"bufferViews":[
		{
			"buffer":0,
			"byteLength":3192,
			"byteOffset":0,
			"target":34962
		},
		{
			"buffer":0,
			"byteLength":2128,
			"byteOffset":3192,
			"target":34962
		},
		{
			"buffer":0,
			"byteLength":3192,
			"byteOffset":5320,
			"target":34962
		},
		{
			"buffer":0,
			"byteLength":984,
			"byteOffset":8512,
			"target":34963
		},
		{
			"buffer":0,
			"byteLength":1032,
			"byteOffset":9496,
			"target":34962
		},
		{
			"buffer":0,
			"byteLength":688,
			"byteOffset":10528,
			"target":34962
		},
		{
			"buffer":0,
			"byteLength":1032,
			"byteOffset":11216,
			"target":34962
		},
		{
			"buffer":0,
			"byteLength":576,
			"byteOffset":12248,
			"target":34963
		},
		{
			"buffer":0,
			"byteLength":264,
			"byteOffset":12824,
			"target":34962
		},
		{
			"buffer":0,
			"byteLength":176,
			"byteOffset":13088,
			"target":34962
		},
		{
			"buffer":0,
			"byteLength":264,
			"byteOffset":13264,
			"target":34962
		},
		{
			"buffer":0,
			"byteLength":120,
			"byteOffset":13528,
			"target":34963
		},
		{
			"buffer":0,
			"byteLength":504,
			"byteOffset":13648,
			"target":34962
		},
		{
			"buffer":0,
			"byteLength":336,
			"byteOffset":14152,
			"target":34962
		},
		{
			"buffer":0,
			"byteLength":504,
			"byteOffset":14488,
			"target":34962
		},
		{
			"buffer":0,
			"byteLength":216,
			"byteOffset":14992,
			"target":34963
		},
		{
			"buffer":0,
			"byteLength":744,
			"byteOffset":15208,
			"target":34962
		},
		{
			"buffer":0,
			"byteLength":496,
			"byteOffset":15952,
			"target":34962
		},
		{
			"buffer":0,
			"byteLength":744,
			"byteOffset":16448,
			"target":34962
		},
		{
			"buffer":0,
			"byteLength":552,
			"byteOffset":17192,
			"target":34963
		},
		{
			"buffer":0,
			"byteLength":504,
			"byteOffset":17744,
			"target":34962
		},
		{
			"buffer":0,
			"byteLength":336,
			"byteOffset":18248,
			"target":34962
		},
		{
			"buffer":0,
			"byteLength":504,
			"byteOffset":18584,
			"target":34962
		},
		{
			"buffer":0,
			"byteLength":504,
			"byteOffset":19088,
			"target":34962
		},
		{
			"buffer":0,
			"byteLength":336,
			"byteOffset":19592,
			"target":34962
		},
		{
			"buffer":0,
			"byteLength":504,
			"byteOffset":19928,
			"target":34962
		},
		{
			"buffer":0,
			"byteLength":384,
			"byteOffset":20432,
			"target":34962
		},
		{
			"buffer":0,
			"byteLength":256,
			"byteOffset":20816,
			"target":34962
		},
		{
			"buffer":0,
			"byteLength":384,
			"byteOffset":21072,
			"target":34962
		},
		{
			"buffer":0,
			"byteLength":168,
			"byteOffset":21456,
			"target":34963
		},
		{
			"buffer":0,
			"byteLength":648,
			"byteOffset":21624,
			"target":34962
		},
		{
			"buffer":0,
			"byteLength":432,
			"byteOffset":22272,
			"target":34962
		},
		{
			"buffer":0,
			"byteLength":648,
			"byteOffset":22704,
			"target":34962
		},
		{
			"buffer":0,
			"byteLength":408,
			"byteOffset":23352,
			"target":34963
		},
		{
			"buffer":0,
			"byteLength":516,
			"byteOffset":23760,
			"target":34962
		},
		{
			"buffer":0,
			"byteLength":344,
			"byteOffset":24276,
			"target":34962
		},
		{
			"buffer":0,
			"byteLength":516,
			"byteOffset":24620,
			"target":34962
		},
		{
			"buffer":0,
			"byteLength":336,
			"byteOffset":25136,
			"target":34963
		},
		{
			"buffer":0,
			"byteLength":5520,
			"byteOffset":25472,
			"target":34962
		},
		{
			"buffer":0,
			"byteLength":3680,
			"byteOffset":30992,
			"target":34962
		},
		{
			"buffer":0,
			"byteLength":5520,
			"byteOffset":34672,
			"target":34962
		},
		{
			"buffer":0,
			"byteLength":2040,
			"byteOffset":40192,
			"target":34963
		},
		{
			"buffer":0,
			"byteLength":840,
			"byteOffset":42232,
			"target":34962
		},
		{
			"buffer":0,
			"byteLength":560,
			"byteOffset":43072,
			"target":34962
		},
		{
			"buffer":0,
			"byteLength":840,
			"byteOffset":43632,
			"target":34962
		},
		{
			"buffer":0,
			"byteLength":312,
			"byteOffset":44472,
			"target":34963
		},
		{
			"buffer":0,
			"byteLength":1200,
			"byteOffset":44784,
			"target":34962
		},
		{
			"buffer":0,
			"byteLength":800,
			"byteOffset":45984,
			"target":34962
		},
		{
			"buffer":0,
			"byteLength":1200,
			"byteOffset":46784,
			"target":34962
		},
		{
			"buffer":0,
			"byteLength":456,
			"byteOffset":47984,
			"target":34963
		},
		{
			"buffer":0,
			"byteLength":504,
			"byteOffset":48440,
			"target":34962
		},
		{
			"buffer":0,
			"byteLength":336,
			"byteOffset":48944,
			"target":34962
		},
		{
			"buffer":0,
			"byteLength":504,
			"byteOffset":49280,
			"target":34962
		},
		{
			"buffer":0,
			"byteLength":900,
			"byteOffset":49784,
			"target":34962
		},
		{
			"buffer":0,
			"byteLength":600,
			"byteOffset":50684,
			"target":34962
		},
		{
			"buffer":0,
			"byteLength":900,
			"byteOffset":51284,
			"target":34962
		},
		{
			"buffer":0,
			"byteLength":576,
			"byteOffset":52184,
			"target":34963
		},
		{
			"buffer":0,
			"byteLength":288,
			"byteOffset":52760,
			"target":34962
		},
		{
			"buffer":0,
			"byteLength":192,
			"byteOffset":53048,
			"target":34962
		},
		{
			"buffer":0,
			"byteLength":288,
			"byteOffset":53240,
			"target":34962
		},
		{
			"buffer":0,
			"byteLength":168,
			"byteOffset":53528,
			"target":34963
		},
		{
			"buffer":0,
			"byteLength":964,
			"byteOffset":53696
		},
		{
			"buffer":0,
			"byteLength":2892,
			"byteOffset":54660
		},
		{
			"buffer":0,
			"byteLength":3856,
			"byteOffset":57552
		},
		{
			"buffer":0,
			"byteLength":2892,
			"byteOffset":61408
		},
		{
			"buffer":0,
			"byteLength":2892,
			"byteOffset":64300
		},
		{
			"buffer":0,
			"byteLength":3856,
			"byteOffset":67192
		},
		{
			"buffer":0,
			"byteLength":2892,
			"byteOffset":71048
		},
		{
			"buffer":0,
			"byteLength":2892,
			"byteOffset":73940
		},
		{
			"buffer":0,
			"byteLength":3856,
			"byteOffset":76832
		},
		{
			"buffer":0,
			"byteLength":2892,
			"byteOffset":80688
		}
	],
	"buffers":[
		{
			"byteLength":83580,
			"uri":"data:application/octet-stream;base64,"
		}
	]
}
