{"accessors":[{"bufferView":0,"byteOffset":0,"componentType":5126,"count":56,"max":[1.076871,1,1.041832],"min":[0.025789,-1.132447,-1.041832],"normalized":false,"type":"VEC3"},{"bufferView":1,"byteOffset":0,"componentType":5126,"count":56,"max":[0.999969,0.448574,0.999386,1],"min":[-0.143575,-0.913579,-0.998531,-1],"normalized":false,"type":"VEC4"},{"bufferView":2,"byteOffset":0,"componentType":5126,"count":56,"max":[0.842426,0.889503,0.919773],"min":[-0.978279,-0.996746,-0.912082],"normalized":false,"type":"VEC3"},{"bufferView":3,"byteOffset":0,"componentType":5126,"count":56,"max":[0.782227,0.5],"min":[0.521484,0],"normalized":false,"type":"VEC2"},{"bufferView":4,"byteOffset":0,"componentType":5125,"count":312,"max":[55],"min":[0],"normalized":false,"type":"SCALAR"},{"bufferView":5,"byteOffset":0,"componentType":5126,"count":267,"max":[1.131298,2.161525,1.087501],"min":[-1.180193,0.590413,-1.087501],"normalized":false,"type":"VEC3"},{"bufferView":6,"byteOffset":0,"componentType":5126,"count":267,"max":[0.999969,0.50032,0.946602,1],"min":[0.322247,-0.582277,-0.946602,-1],"normalized":false,"type":"VEC4"},{"bufferView":7,"byteOffset":0,"componentType":5126,"count":267,"max":[0.999936,0.999936,0.999936],"min":[-0.946602,-0.946237,-0.999736],"normalized":false,"type":"VEC3"},{"bufferView":8,"byteOffset":0,"componentType":5126,"count":267,"max":[0.5,0.599609],"min":[0,0],"normalized":false,"type":"VEC2"},{"bufferView":9,"byteOffset":0,"componentType":5125,"count":1488,"max":[266],"min":[0],"normalized":false,"type":"SCALAR"},{"bufferView":10,"byteOffset":0,"componentType":5126,"count":217,"max":[0.279666,1.536157,0.285362],"min":[-0.290416,0.966066,-0.28472],"normalized":false,"type":"VEC3"},{"bufferView":11,"byteOffset":0,"componentType":5126,"count":217,"max":[0.999969,0.082694,0.999969,1],"min":[-0.999969,-0.084068,-0.999872,1],"normalized":false,"type":"VEC4"},{"bufferView":12,"byteOffset":0,"componentType":5126,"count":217,"max":[1,0.999969,1],"min":[-0.999969,-1,-0.999969],"normalized":false,"type":"VEC3"},{"bufferView":13,"byteOffset":0,"componentType":5126,"count":217,"max":[1,1],"min":[0,0],"normalized":false,"type":"VEC2"},{"bufferView":14,"byteOffset":0,"componentType":5123,"count":217,"max":[19,19,19,19],"min":[3,0,0,0],"normalized":false,"type":"VEC4"},{"bufferView":15,"byteOffset":0,"componentType":5126,"count":217,"max":[1,0.389456,0.226886,0.1944],"min":[0.370611,0,0,0],"normalized":false,"type":"VEC4"},{"bufferView":16,"byteOffset":0,"componentType":5125,"count":972,"max":[216],"min":[0],"normalized":false,"type":"SCALAR"},{"bufferView":17,"byteOffset":0,"componentType":5126,"count":32,"max":[0.226212,1.251112,0.285362],"min":[-0.234994,1.020505,0.098005],"normalized":false,"type":"VEC3"},{"bufferView":18,"byteOffset":0,"componentType":5126,"count":32,"max":[0.999969,0.082171,0.809165,1],"min":[0.587476,-0.084068,-0.803947,1],"normalized":false,"type":"VEC4"},{"bufferView":19,"byteOffset":0,"componentType":5126,"count":32,"max":[0.803947,0,1],"min":[-0.803947,-0.800617,0.361569],"normalized":false,"type":"VEC3"},{"bufferView":20,"byteOffset":0,"componentType":5126,"count":32,"max":[0.995605,0.995117],"min":[0.001173,0.001917],"normalized":false,"type":"VEC2"},{"bufferView":21,"byteOffset":0,"componentType":5123,"count":32,"max":[7,19,19,19],"min":[7,0,0,0],"normalized":false,"type":"VEC4"},{"bufferView":22,"byteOffset":0,"componentType":5126,"count":32,"max":[1,0.152834,0.076539,0.064302],"min":[0.759289,0,0,0],"normalized":false,"type":"VEC4"},{"bufferView":23,"byteOffset":0,"componentType":5125,"count":108,"max":[31],"min":[0],"normalized":false,"type":"SCALAR"},{"bufferView":24,"byteOffset":0,"componentType":5126,"count":64,"max":[0.190064,1.002472,0.100483],"min":[-0.183655,0.874245,-0.106649],"normalized":false,"type":"VEC3"},{"bufferView":25,"byteOffset":0,"componentType":5126,"count":64,"max":[0.718978,0.008589,0.999969,1],"min":[-0.717454,-0.999872,-0.999837,1],"normalized":false,"type":"VEC4"},{"bufferView":26,"byteOffset":0,"componentType":5126,"count":64,"max":[0.906671,0.999969,0.999708],"min":[-0.906671,-0.881109,-0.999429],"normalized":false,"type":"VEC3"},{"bufferView":27,"byteOffset":0,"componentType":5126,"count":64,"max":[0.855469,0.517578],"min":[0.649414,0.274902],"normalized":false,"type":"VEC2"},{"bufferView":28,"byteOffset":0,"componentType":5123,"count":64,"max":[31,31,33,31],"min":[3,0,0,0],"normalized":false,"type":"VEC4"},{"bufferView":29,"byteOffset":0,"componentType":5126,"count":64,"max":[1,0.314443,0.202075,0.180621],"min":[0.424811,0,0,0],"normalized":false,"type":"VEC4"},{"bufferView":30,"byteOffset":0,"componentType":5125,"count":240,"max":[63],"min":[0],"normalized":false,"type":"SCALAR"},{"bufferView":31,"byteOffset":0,"componentType":5126,"count":56,"max":[0.161092,0.890846,0.100483],"min":[-0.154684,0.626302,-0.106649],"normalized":false,"type":"VEC3"},{"bufferView":32,"byteOffset":0,"componentType":5126,"count":56,"max":[0.415381,-0.90728,0.13636,1],"min":[-0.415381,-0.999936,-0.147307,1],"normalized":false,"type":"VEC4"},{"bufferView":33,"byteOffset":0,"componentType":5126,"count":56,"max":[0.999969,0.040949,1],"min":[-0.999872,-0.421707,-0.999936],"normalized":false,"type":"VEC3"},{"bufferView":34,"byteOffset":0,"componentType":5126,"count":56,"max":[0.648926,0.517578],"min":[0.362305,0.299072],"normalized":false,"type":"VEC2"},{"bufferView":35,"byteOffset":0,"componentType":5123,"count":56,"max":[39,39,34,39],"min":[0,0,0,0],"normalized":false,"type":"VEC4"},{"bufferView":36,"byteOffset":0,"componentType":5126,"count":56,"max":[0.943221,0.359274,0.196796,0.180621],"min":[0.417472,0.053956,0,0],"normalized":false,"type":"VEC4"},{"bufferView":37,"byteOffset":0,"componentType":5125,"count":216,"max":[55],"min":[0],"normalized":false,"type":"SCALAR"},{"bufferView":38,"byteOffset":0,"componentType":5126,"count":80,"max":[0.243235,1.021669,0.068677],"min":[-0.236827,0.903814,-0.074843],"normalized":false,"type":"VEC3"},{"bufferView":39,"byteOffset":0,"componentType":5126,"count":80,"max":[0.438601,0.996989,0.999969,1],"min":[-0.438601,-0.008656,-0.999837,1],"normalized":false,"type":"VEC4"},{"bufferView":40,"byteOffset":0,"componentType":5126,"count":80,"max":[0.526307,0.99967,0.980345],"min":[-0.540886,-0.995419,-0.97683],"normalized":false,"type":"VEC3"},{"bufferView":41,"byteOffset":0,"componentType":5126,"count":80,"max":[0.99707,0.339844],"min":[0.362305,0.009071],"normalized":false,"type":"VEC2"},{"bufferView":42,"byteOffset":0,"componentType":5123,"count":80,"max":[20,31,31,0],"min":[9,0,0,0],"normalized":false,"type":"VEC4"},{"bufferView":43,"byteOffset":0,"componentType":5126,"count":80,"max":[1,0.314443,0.117708,0],"min":[0.65687,0,0,0],"normalized":false,"type":"VEC4"},{"bufferView":44,"byteOffset":0,"componentType":5125,"count":288,"max":[79],"min":[0],"normalized":false,"type":"SCALAR"},{"bufferView":45,"byteOffset":0,"componentType":5126,"count":140,"max":[0.51831,1.012082,0.042709],"min":[-0.511535,0.904634,-0.048875],"normalized":false,"type":"VEC3"},{"bufferView":46,"byteOffset":0,"componentType":5126,"count":140,"max":[0.999969,0.319046,0.199692,1],"min":[-0.999969,-0.104681,-0.206949,1],"normalized":false,"type":"VEC4"},{"bufferView":47,"byteOffset":0,"componentType":5126,"count":140,"max":[0.322247,0.997674,1],"min":[-0.322247,-0.999936,-0.999936],"normalized":false,"type":"VEC3"},{"bufferView":48,"byteOffset":0,"componentType":5126,"count":140,"max":[0.512207,0.216309],"min":[0.000453,0.057648],"normalized":false,"type":"VEC2"},{"bufferView":49,"byteOffset":0,"componentType":5123,"count":140,"max":[22,31,26,23],"min":[9,0,0,0],"normalized":false,"type":"VEC4"},{"bufferView":50,"byteOffset":0,"componentType":5126,"count":140,"max":[1,0.32987,0.179141,0.016114],"min":[0.518151,0,0,0],"normalized":false,"type":"VEC4"},{"bufferView":51,"byteOffset":0,"componentType":5125,"count":576,"max":[139],"min":[0],"normalized":false,"type":"SCALAR"},{"bufferView":52,"byteOffset":0,"componentType":5126,"count":228,"max":[0.693734,0.973251,0.089492],"min":[-0.687425,0.918895,-0.064859],"normalized":false,"type":"VEC3"},{"bufferView":53,"byteOffset":0,"componentType":5126,"count":228,"max":[0.999969,0.976813,0.656337,1],"min":[-0.999837,-0.986606,-0.979047,-1],"normalized":false,"type":"VEC4"},{"bufferView":54,"byteOffset":0,"componentType":5126,"count":228,"max":[0.992239,0.999708,0.996856],"min":[-0.991635,-0.999133,-0.998995],"normalized":false,"type":"VEC3"},{"bufferView":55,"byteOffset":0,"componentType":5126,"count":228,"max":[0.908691,1],"min":[0.000453,0.017227],"normalized":false,"type":"VEC2"},{"bufferView":56,"byteOffset":0,"componentType":5123,"count":228,"max":[29,29,29,29],"min":[10,0,0,0],"normalized":false,"type":"VEC4"},{"bufferView":57,"byteOffset":0,"componentType":5126,"count":228,"max":[1,0.473198,0.233188,0.173419],"min":[0.383825,0,0,0],"normalized":false,"type":"VEC4"},{"bufferView":58,"byteOffset":0,"componentType":5125,"count":1008,"max":[227],"min":[0],"normalized":false,"type":"SCALAR"},{"bufferView":59,"byteOffset":0,"componentType":5126,"count":94,"max":[0.168343,0.633978,0.096168],"min":[-0.161935,0.351389,-0.102334],"normalized":false,"type":"VEC3"},{"bufferView":60,"byteOffset":0,"componentType":5126,"count":94,"max":[0.999969,0.999318,0.99967,1],"min":[-0.580038,-0.008127,-0.999837,-1],"normalized":false,"type":"VEC4"},{"bufferView":61,"byteOffset":0,"componentType":5126,"count":94,"max":[0.999969,0.058234,0.998773],"min":[-0.999872,-1,-0.998239],"normalized":false,"type":"VEC3"},{"bufferView":62,"byteOffset":0,"componentType":5126,"count":94,"max":[0.361328,1],"min":[0,0.203857],"normalized":false,"type":"VEC2"},{"bufferView":63,"byteOffset":0,"componentType":5123,"count":94,"max":[39,40,34,39],"min":[0,0,0,0],"normalized":false,"type":"VEC4"},{"bufferView":64,"byteOffset":0,"componentType":5126,"count":94,"max":[1,0.419165,0.31931,0.216236],"min":[0.29929,0,0,0],"normalized":false,"type":"VEC4"},{"bufferView":65,"byteOffset":0,"componentType":5125,"count":360,"max":[93],"min":[0],"normalized":false,"type":"SCALAR"},{"bufferView":66,"byteOffset":0,"componentType":5126,"count":40,"max":[0.175725,0.382298,0.077143],"min":[-0.169317,0.242903,-0.08331],"normalized":false,"type":"VEC3"},{"bufferView":67,"byteOffset":0,"componentType":5126,"count":40,"max":[0.106495,-0.993957,0.052891,1],"min":[-0.106495,-0.999429,-0.06222,1],"normalized":false,"type":"VEC4"},{"bufferView":68,"byteOffset":0,"componentType":5126,"count":40,"max":[0.998773,0.08516,0.999872],"min":[-0.999113,-0.106863,-0.999936],"normalized":false,"type":"VEC3"},{"bufferView":69,"byteOffset":0,"componentType":5126,"count":40,"max":[0.999512,0.999512],"min":[0.100769,0.006573],"normalized":false,"type":"VEC2"},{"bufferView":70,"byteOffset":0,"componentType":5123,"count":40,"max":[40,40,0,0],"min":[34,34,0,0],"normalized":false,"type":"VEC4"},{"bufferView":71,"byteOffset":0,"componentType":5126,"count":40,"max":[0.984649,0.129824,0,0],"min":[0.870161,0.015335,0,0],"normalized":false,"type":"VEC4"},{"bufferView":72,"byteOffset":0,"componentType":5125,"count":96,"max":[39],"min":[0],"normalized":false,"type":"SCALAR"},{"bufferView":73,"byteOffset":0,"componentType":5126,"count":40,"max":[0.183512,0.255833,0.079782],"min":[-0.177097,0.166031,-0.082939],"normalized":false,"type":"VEC3"},{"bufferView":74,"byteOffset":0,"componentType":5126,"count":40,"max":[0.206229,0.997888,0.107413,1],"min":[-0.206229,0.952423,-0.293053,1],"normalized":false,"type":"VEC4"},{"bufferView":75,"byteOffset":0,"componentType":5126,"count":40,"max":[0.998872,0.301071,0.999872],"min":[-0.999113,-0.049526,-0.999936],"normalized":false,"type":"VEC3"},{"bufferView":76,"byteOffset":0,"componentType":5126,"count":40,"max":[0.980957,0.775879],"min":[0.58252,0.184204],"normalized":false,"type":"VEC2"},{"bufferView":77,"byteOffset":0,"componentType":5123,"count":40,"max":[40,43,41,0],"min":[35,34,0,0],"normalized":false,"type":"VEC4"},{"bufferView":78,"byteOffset":0,"componentType":5126,"count":40,"max":[0.999863,0.142504,0.075731,0],"min":[0.803906,0.000122,0,0],"normalized":false,"type":"VEC4"},{"bufferView":79,"byteOffset":0,"componentType":5125,"count":96,"max":[39],"min":[0],"normalized":false,"type":"SCALAR"},{"bufferView":80,"byteOffset":0,"componentType":5126,"count":84,"max":[0.195784,0.173048,0.217321],"min":[-0.188373,0.056335,-0.087241],"normalized":false,"type":"VEC3"},{"bufferView":81,"byteOffset":0,"componentType":5126,"count":84,"max":[0.81809,-0.1564,0.578582,1],"min":[-0.808521,-0.999736,-0.253237,1],"normalized":false,"type":"VEC4"},{"bufferView":82,"byteOffset":0,"componentType":5126,"count":84,"max":[0.998872,0.946845,1],"min":[-0.998995,-0.298299,-0.99967],"normalized":false,"type":"VEC3"},{"bufferView":83,"byteOffset":0,"componentType":5126,"count":84,"max":[0.935059,0.517578],"min":[0.649414,0.09729],"normalized":false,"type":"VEC2"},{"bufferView":84,"byteOffset":0,"componentType":5123,"count":84,"max":[43,43,43,43],"min":[35,35,0,0],"normalized":false,"type":"VEC4"},{"bufferView":85,"byteOffset":0,"componentType":5126,"count":84,"max":[0.999863,0.343236,0.264942,0.104982],"min":[0.391608,0.000122,0,0],"normalized":false,"type":"VEC4"},{"bufferView":86,"byteOffset":0,"componentType":5125,"count":288,"max":[83],"min":[0],"normalized":false,"type":"SCALAR"},{"bufferView":87,"byteOffset":0,"componentType":5126,"count":54,"max":[0.195784,0.064859,0.217321],"min":[-0.188373,0.007608,-0.085646],"normalized":false,"type":"VEC3"},{"bufferView":88,"byteOffset":0,"componentType":5126,"count":54,"max":[0.998718,0.982994,0.487154,1],"min":[-0.998303,-0.978582,-0.579548,1],"normalized":false,"type":"VEC4"},{"bufferView":89,"byteOffset":0,"componentType":5126,"count":54,"max":[0.995369,0.022586,1],"min":[-0.994846,-0.999113,-0.961478],"normalized":false,"type":"VEC3"},{"bufferView":90,"byteOffset":0,"componentType":5126,"count":54,"max":[0.581543,0.298096],"min":[0.362305,0.144165],"normalized":false,"type":"VEC2"},{"bufferView":91,"byteOffset":0,"componentType":5123,"count":54,"max":[43,43,41,43],"min":[36,0,0,0],"normalized":false,"type":"VEC4"},{"bufferView":92,"byteOffset":0,"componentType":5126,"count":54,"max":[1,0.296254,0.200839,0.104982],"min":[0.397894,0,0,0],"normalized":false,"type":"VEC4"},{"bufferView":93,"byteOffset":0,"componentType":5125,"count":240,"max":[53],"min":[0],"normalized":false,"type":"SCALAR"}],"asset":{"generator":"Godot Engine v3.5.stable.official@991bb6ac74ac8c09d7683041b50a8ced3a2defb1","version":"2.0"},"bufferViews":[{"buffer":0,"byteLength":672,"byteOffset":0},{"buffer":0,"byteLength":896,"byteOffset":672},{"buffer":0,"byteLength":672,"byteOffset":1568},{"buffer":0,"byteLength":448,"byteOffset":2240},{"buffer":0,"byteLength":1248,"byteOffset":2688},{"buffer":0,"byteLength":3204,"byteOffset":3936},{"buffer":0,"byteLength":4272,"byteOffset":7140},{"buffer":0,"byteLength":3204,"byteOffset":11412},{"buffer":0,"byteLength":2136,"byteOffset":14616},{"buffer":0,"byteLength":5952,"byteOffset":16752},{"buffer":0,"byteLength":2604,"byteOffset":22704},{"buffer":0,"byteLength":3472,"byteOffset":25308},{"buffer":0,"byteLength":2604,"byteOffset":28780},{"buffer":0,"byteLength":1736,"byteOffset":31384},{"buffer":0,"byteLength":1736,"byteOffset":33120},{"buffer":0,"byteLength":3472,"byteOffset":34856},{"buffer":0,"byteLength":3888,"byteOffset":38328},{"buffer":0,"byteLength":384,"byteOffset":42216},{"buffer":0,"byteLength":512,"byteOffset":42600},{"buffer":0,"byteLength":384,"byteOffset":43112},{"buffer":0,"byteLength":256,"byteOffset":43496},{"buffer":0,"byteLength":256,"byteOffset":43752},{"buffer":0,"byteLength":512,"byteOffset":44008},{"buffer":0,"byteLength":432,"byteOffset":44520},{"buffer":0,"byteLength":768,"byteOffset":44952},{"buffer":0,"byteLength":1024,"byteOffset":45720},{"buffer":0,"byteLength":768,"byteOffset":46744},{"buffer":0,"byteLength":512,"byteOffset":47512},{"buffer":0,"byteLength":512,"byteOffset":48024},{"buffer":0,"byteLength":1024,"byteOffset":48536},{"buffer":0,"byteLength":960,"byteOffset":49560},{"buffer":0,"byteLength":672,"byteOffset":50520},{"buffer":0,"byteLength":896,"byteOffset":51192},{"buffer":0,"byteLength":672,"byteOffset":52088},{"buffer":0,"byteLength":448,"byteOffset":52760},{"buffer":0,"byteLength":448,"byteOffset":53208},{"buffer":0,"byteLength":896,"byteOffset":53656},{"buffer":0,"byteLength":864,"byteOffset":54552},{"buffer":0,"byteLength":960,"byteOffset":55416},{"buffer":0,"byteLength":1280,"byteOffset":56376},{"buffer":0,"byteLength":960,"byteOffset":57656},{"buffer":0,"byteLength":640,"byteOffset":58616},{"buffer":0,"byteLength":640,"byteOffset":59256},{"buffer":0,"byteLength":1280,"byteOffset":59896},{"buffer":0,"byteLength":1152,"byteOffset":61176},{"buffer":0,"byteLength":1680,"byteOffset":62328},{"buffer":0,"byteLength":2240,"byteOffset":64008},{"buffer":0,"byteLength":1680,"byteOffset":66248},{"buffer":0,"byteLength":1120,"byteOffset":67928},{"buffer":0,"byteLength":1120,"byteOffset":69048},{"buffer":0,"byteLength":2240,"byteOffset":70168},{"buffer":0,"byteLength":2304,"byteOffset":72408},{"buffer":0,"byteLength":2736,"byteOffset":74712},{"buffer":0,"byteLength":3648,"byteOffset":77448},{"buffer":0,"byteLength":2736,"byteOffset":81096},{"buffer":0,"byteLength":1824,"byteOffset":83832},{"buffer":0,"byteLength":1824,"byteOffset":85656},{"buffer":0,"byteLength":3648,"byteOffset":87480},{"buffer":0,"byteLength":4032,"byteOffset":91128},{"buffer":0,"byteLength":1128,"byteOffset":95160},{"buffer":0,"byteLength":1504,"byteOffset":96288},{"buffer":0,"byteLength":1128,"byteOffset":97792},{"buffer":0,"byteLength":752,"byteOffset":98920},{"buffer":0,"byteLength":752,"byteOffset":99672},{"buffer":0,"byteLength":1504,"byteOffset":100424},{"buffer":0,"byteLength":1440,"byteOffset":101928},{"buffer":0,"byteLength":480,"byteOffset":103368},{"buffer":0,"byteLength":640,"byteOffset":103848},{"buffer":0,"byteLength":480,"byteOffset":104488},{"buffer":0,"byteLength":320,"byteOffset":104968},{"buffer":0,"byteLength":320,"byteOffset":105288},{"buffer":0,"byteLength":640,"byteOffset":105608},{"buffer":0,"byteLength":384,"byteOffset":106248},{"buffer":0,"byteLength":480,"byteOffset":106632},{"buffer":0,"byteLength":640,"byteOffset":107112},{"buffer":0,"byteLength":480,"byteOffset":107752},{"buffer":0,"byteLength":320,"byteOffset":108232},{"buffer":0,"byteLength":320,"byteOffset":108552},{"buffer":0,"byteLength":640,"byteOffset":108872},{"buffer":0,"byteLength":384,"byteOffset":109512},{"buffer":0,"byteLength":1008,"byteOffset":109896},{"buffer":0,"byteLength":1344,"byteOffset":110904},{"buffer":0,"byteLength":1008,"byteOffset":112248},{"buffer":0,"byteLength":672,"byteOffset":113256},{"buffer":0,"byteLength":672,"byteOffset":113928},{"buffer":0,"byteLength":1344,"byteOffset":114600},{"buffer":0,"byteLength":1152,"byteOffset":115944},{"buffer":0,"byteLength":648,"byteOffset":117096},{"buffer":0,"byteLength":864,"byteOffset":117744},{"buffer":0,"byteLength":648,"byteOffset":118608},{"buffer":0,"byteLength":432,"byteOffset":119256},{"buffer":0,"byteLength":432,"byteOffset":119688},{"buffer":0,"byteLength":864,"byteOffset":120120},{"buffer":0,"byteLength":960,"byteOffset":120984}],"buffers":[{"byteLength":121944,"uri":"default_model0.bin"}],"extensionsRequired":["KHR_texture_transform"],"extensionsUsed":["KHR_lights_punctual","KHR_texture_transform"],"images":[{"uri":"textures/Material004_albedo.png"}],"materials":[{"pbrMetallicRoughness":{"baseColorFactor":[0.147027,0.025187,0.000607,1],"metallicFactor":0,"roughnessFactor":1}},{"pbrMetallicRoughness":{"baseColorFactor":[0.930111,0.723055,0.564712,1],"metallicFactor":0,"roughnessFactor":1}},{"name":"Material004","pbrMetallicRoughness":{"baseColorFactor":[1,1,1,1],"baseColorTexture":{"extensions":{"KHR_texture_transform":{"offset":[0,0],"scale":[1,1]}},"index":0},"metallicFactor":0,"roughnessFactor":1}},{"pbrMetallicRoughness":{"baseColorFactor":[1,1,1,1],"metallicFactor":0,"roughnessFactor":1}},{"pbrMetallicRoughness":{"baseColorFactor":[0.064803,0.093059,0.417885,1],"metallicFactor":0,"roughnessFactor":1}},{"pbrMetallicRoughness":{"baseColorFactor":[0.672444,0.672444,0.672444,1],"metallicFactor":0,"roughnessFactor":1}},{"pbrMetallicRoughness":{"baseColorFactor":[0.250158,0.250158,0.250158,1],"metallicFactor":0,"roughnessFactor":0.4}}],"meshes":[{"extras":{"targetNames":[]},"primitives":[{"attributes":{"NORMAL":2,"POSITION":0,"TANGENT":1,"TEXCOORD_0":3},"indices":4,"material":0,"mode":4},{"attributes":{"NORMAL":7,"POSITION":5,"TANGENT":6,"TEXCOORD_0":8},"indices":9,"material":0,"mode":4}]},{"extras":{"targetNames":[]},"primitives":[{"attributes":{"JOINTS_0":14,"NORMAL":12,"POSITION":10,"TANGENT":11,"TEXCOORD_0":13,"WEIGHTS_0":15},"indices":16,"material":1,"mode":4},{"attributes":{"JOINTS_0":21,"NORMAL":19,"POSITION":17,"TANGENT":18,"TEXCOORD_0":20,"WEIGHTS_0":22},"indices":23,"material":2,"mode":4},{"attributes":{"JOINTS_0":28,"NORMAL":26,"POSITION":24,"TANGENT":25,"TEXCOORD_0":27,"WEIGHTS_0":29},"indices":30,"material":3,"mode":4},{"attributes":{"JOINTS_0":35,"NORMAL":33,"POSITION":31,"TANGENT":32,"TEXCOORD_0":34,"WEIGHTS_0":36},"indices":37,"material":3,"mode":4},{"attributes":{"JOINTS_0":42,"NORMAL":40,"POSITION":38,"TANGENT":39,"TEXCOORD_0":41,"WEIGHTS_0":43},"indices":44,"material":3,"mode":4},{"attributes":{"JOINTS_0":49,"NORMAL":47,"POSITION":45,"TANGENT":46,"TEXCOORD_0":48,"WEIGHTS_0":50},"indices":51,"material":1,"mode":4},{"attributes":{"JOINTS_0":56,"NORMAL":54,"POSITION":52,"TANGENT":53,"TEXCOORD_0":55,"WEIGHTS_0":57},"indices":58,"material":1,"mode":4},{"attributes":{"JOINTS_0":63,"NORMAL":61,"POSITION":59,"TANGENT":60,"TEXCOORD_0":62,"WEIGHTS_0":64},"indices":65,"material":4,"mode":4},{"attributes":{"JOINTS_0":70,"NORMAL":68,"POSITION":66,"TANGENT":67,"TEXCOORD_0":69,"WEIGHTS_0":71},"indices":72,"material":1,"mode":4},{"attributes":{"JOINTS_0":77,"NORMAL":75,"POSITION":73,"TANGENT":74,"TEXCOORD_0":76,"WEIGHTS_0":78},"indices":79,"material":3,"mode":4},{"attributes":{"JOINTS_0":84,"NORMAL":82,"POSITION":80,"TANGENT":81,"TEXCOORD_0":83,"WEIGHTS_0":85},"indices":86,"material":5,"mode":4},{"attributes":{"JOINTS_0":91,"NORMAL":89,"POSITION":87,"TANGENT":88,"TEXCOORD_0":90,"WEIGHTS_0":92},"indices":93,"material":6,"mode":4}]}],"nodes":[{"children":[1,2],"extensions":{},"name":"Skin","scale":[0.5,0.5,0.5]},{"extensions":{},"mesh":0,"name":"Hair","rotation":[0,0.70918,0,0.705028],"scale":[0.269829,0.269829,0.269829],"translation":[0.000899,1.026358,-0.002138]},{"extensions":{},"mesh":1,"name":"BaseCharacter","translation":[0.00455,0.037753,0.004762]}],"scene":0,"scenes":[{"nodes":[0]}],"textures":[{"source":0}]}