{
    "asset" : {
        "generator" : "Khronos glTF Blender I/O v3.4.50",
        "version" : "2.0"
    },
    "scene" : 0,
    "scenes" : [
        {
            "name" : "Scene",
            "nodes" : [
                0
            ]
        }
    ],
    "nodes" : [
        {
            "mesh" : 0,
            "name" : "Hair",
            "scale" : [
                0.3088538646697998,
                0.3088538646697998,
                0.3088538646697998
            ]
        }
    ],
    "materials" : [
        {
            "doubleSided" : true,
            "name" : "Material.004",
            "pbrMetallicRoughness" : {
                "baseColorFactor" : [
                    0.06997791677713394,
                    0.06997791677713394,
                    0.06997791677713394,
                    1
                ]
            }
        }
    ],
    "meshes" : [
        {
            "name" : "Sphere.002",
            "primitives" : [
                {
                    "attributes" : {
                        "POSITION" : 0,
                        "TEXCOORD_0" : 1,
                        "NORMAL" : 2
                    },
                    "indices" : 3,
                    "material" : 0
                }
            ]
        }
    ],
    "accessors" : [
        {
            "bufferView" : 0,
            "componentType" : 5126,
            "count" : 248,
            "max" : [
                0.9687421321868896,
                0.9780119061470032,
                0.9730331301689148
            ],
            "min" : [
                -0.9687421321868896,
                -0.4349138140678406,
                -0.9775943756103516
            ],
            "type" : "VEC3"
        },
        {
            "bufferView" : 1,
            "componentType" : 5126,
            "count" : 248,
            "type" : "VEC2"
        },
        {
            "bufferView" : 2,
            "componentType" : 5126,
            "count" : 248,
            "type" : "VEC3"
        },
        {
            "bufferView" : 3,
            "componentType" : 5123,
            "count" : 1236,
            "type" : "SCALAR"
        }
    ],
    "bufferViews" : [
        {
            "buffer" : 0,
            "byteLength" : 2976,
            "byteOffset" : 0,
            "target" : 34962
        },
        {
            "buffer" : 0,
            "byteLength" : 1984,
            "byteOffset" : 2976,
            "target" : 34962
        },
        {
            "buffer" : 0,
            "byteLength" : 2976,
            "byteOffset" : 4960,
            "target" : 34962
        },
        {
            "buffer" : 0,
            "byteLength" : 2472,
            "byteOffset" : 7936,
            "target" : 34963
        }
    ],
    "buffers" : [
        {
            "byteLength" : 10408,
            "uri" : "data:application/octet-stream;base64,"
        }
    ]
}
