{"accessors":[{"bufferView":0,"byteOffset":0,"componentType":5126,"count":10112,"max":[8,2.5,8],"min":[-8,-1,-8],"normalized":false,"type":"VEC3"},{"bufferView":1,"byteOffset":0,"componentType":5126,"count":10112,"max":[1,1,1],"min":[-1,-1,-1],"normalized":false,"type":"VEC3"},{"bufferView":2,"byteOffset":0,"componentType":5126,"count":10112,"max":[0.533203,0.666504],"min":[0.266602,0.333252],"normalized":false,"type":"VEC2"},{"bufferView":3,"byteOffset":0,"componentType":5126,"count":10112,"max":[1,1,1,1],"min":[1,1,1,1],"normalized":false,"type":"VEC4"},{"bufferView":4,"byteOffset":0,"componentType":5125,"count":15168,"max":[10111],"min":[0],"normalized":false,"type":"SCALAR"},{"bufferView":5,"byteOffset":0,"componentType":5126,"count":132,"max":[8,0,8],"min":[-8,0,-8],"normalized":false,"type":"VEC3"},{"bufferView":6,"byteOffset":0,"componentType":5126,"count":132,"max":[0,1,0],"min":[0,1,0],"normalized":false,"type":"VEC3"}],"asset":{"generator":"Godot Engine v3.5.stable.official@991bb6ac74ac8c09d7683041b50a8ced3a2defb1","version":"2.0"},"bufferViews":[{"buffer":0,"byteLength":121344,"byteOffset":0},{"buffer":0,"byteLength":121344,"byteOffset":121344},{"buffer":0,"byteLength":80896,"byteOffset":242688},{"buffer":0,"byteLength":161792,"byteOffset":323584},{"buffer":0,"byteLength":60672,"byteOffset":485376},{"buffer":0,"byteLength":1584,"byteOffset":546048},{"buffer":0,"byteLength":1584,"byteOffset":547632}],"buffers":[{"byteLength":549216,"uri":"VoxelMesh0.bin"}],"extensionsRequired":["KHR_texture_transform"],"extensionsUsed":["KHR_lights_punctual","KHR_texture_transform"],"images":[{"uri":"textures/_albedo.png"}],"materials":[{"pbrMetallicRoughness":{"baseColorFactor":[1,1,1,1],"baseColorTexture":{"extensions":{"KHR_texture_transform":{"offset":[0,0],"scale":[1,1]}},"index":0},"metallicFactor":0,"roughnessFactor":1}},{"doubleSided":true,"pbrMetallicRoughness":{"baseColorFactor":[1,1,1,1],"metallicFactor":0,"roughnessFactor":1}}],"meshes":[{"extras":{"targetNames":[]},"primitives":[{"attributes":{"COLOR_0":3,"NORMAL":1,"POSITION":0,"TEXCOORD_0":2},"indices":4,"material":0,"mode":4}]},{"extras":{"targetNames":[]},"primitives":[{"attributes":{"NORMAL":6,"POSITION":5},"material":1,"mode":1}]}],"nodes":[{"children":[1,3,6],"extensions":{},"mesh":0,"name":"VoxelMesh","translation":[-0.02786,0.006101,-0.154781]},{"children":[2],"extensions":{},"name":"StaticBody"},{"extensions":{},"name":"CollisionShape"},{"children":[4],"extensions":{},"mesh":1,"name":"MeshInstance"},{"children":[5],"extensions":{},"name":"MeshInstance_col"},{"extensions":{},"name":"CollisionShape2"},{"extensions":{},"name":"MeshInstance2"}],"scene":0,"scenes":[{"nodes":[0]}],"textures":[{"source":0}]}