<svg version="1.1" width="327" height="205" viewBox="-1 -1 327 205" xmlns="http://www.w3.org/2000/svg" xmlns:xlink="http://www.w3.org/1999/xlink">
  <defs>
    <linearGradient id="grad_1" y2="1">
      <stop offset="0" stop-color="#B2B2B2" stop-opacity="1"/>
      <stop offset="1" stop-color="#E5E5E5" stop-opacity="1"/>
    </linearGradient>
    <linearGradient id="grad_2" y2="1">
      <stop offset="0" stop-color="#C1C1C1" stop-opacity="1"/>
      <stop offset="1" stop-color="#D8D8D8" stop-opacity="1"/>
    </linearGradient>
    <linearGradient id="grad_3" y2="1">
      <stop offset="0" stop-color="#666666" stop-opacity="1"/>
      <stop offset="1" stop-color="#CCCCCC" stop-opacity="1"/>
    </linearGradient>
  </defs>
  <!-- Exported by Scratch - http://scratch.mit.edu/ -->
  <g id="ID0.41157138906419277">
    <path id="ID0.6965752658434212" fill="#000000" d="M 118.170 86.887 C 118.170 91.639 114.316 95.492 109.565 95.492 L 35.773 95.492 C 31.021 95.492 27.169 91.638 27.169 86.887 L 27.169 49.424 C 27.169 44.672 31.021 40.820 35.773 40.820 L 109.564 40.820 C 114.318 40.820 118.169 44.672 118.169 49.424 L 118.169 86.887 L 118.170 86.887 Z " transform="matrix(1, 0, 0, 1, -27, -40)"/>
    <path id="ID0.8598260805010796" fill="url(#grad_1)" d="M 109.564 44.233 L 35.773 44.233 C 32.912 44.233 30.583 46.561 30.583 49.423 L 30.583 86.886 C 30.583 89.748 32.912 92.076 35.773 92.076 L 109.564 92.076 C 112.428 92.076 114.755 89.748 114.755 86.886 L 114.755 49.424 C 114.755 46.562 112.428 44.233 109.564 44.233 Z " transform="matrix(1, 0, 0, 1, -27, -40)"/>
  </g>
  <g id="ID0.09332405077293515" transform="matrix(1.0339434146881104, 0, 0, 1.0339434146881104, -271.55, -164)">
    <g id="ID0.44667832227423787" transform="matrix(0.86993008852005, 0, 0, 0.86993008852005, 36.3, 26.75)">
      <path id="ID0.9966010181233287" fill="#666666" stroke="#666666" stroke-width="2" d="M 227 168.250 L 258.650 168.250 L 258.650 201.500 L 227 201.500 L 227 168.250 Z " transform="matrix(0.9689857363700867, 0, 0, 0.9689857363700867, 73.55, 8.25)"/>
      <path id="ID0.9879797380417585" fill="none" stroke="#666666" stroke-width="2" d="M 242.025 158.100 C 245.715 158.100 249.059 159.221 251.480 161.031 C 253.901 162.841 255.400 165.341 255.400 168.100 C 255.400 170.859 253.901 173.359 251.480 175.169 C 249.059 176.979 245.715 178.100 242.025 178.100 C 238.335 178.100 234.991 176.979 232.570 175.169 C 230.149 173.359 228.650 170.859 228.650 168.100 C 228.650 165.341 230.149 162.841 232.570 161.031 C 234.991 159.221 238.335 158.100 242.025 158.100 Z " transform="matrix(0.8163435459136963, 0, 0, 1.0295454263687134, 111.35, -1.8)"/>
    </g>
    <g id="ID0.44667832227423787" transform="matrix(0.86993008852005, 0, 0, 0.86993008852005, 40.5, 26.65)">
      <path id="ID0.9966010181233287" fill="#000000" stroke="#000000" stroke-width="2" d="M 227 168.250 L 258.650 168.250 L 258.650 201.500 L 227 201.500 L 227 168.250 Z " transform="matrix(0.9689857363700867, 0, 0, 0.9689857363700867, 73.55, 8.25)"/>
      <path id="ID0.9879797380417585" fill="none" stroke="#000000" stroke-width="2" d="M 242.025 158.100 C 245.715 158.100 249.059 159.221 251.480 161.031 C 253.901 162.841 255.400 165.341 255.400 168.100 C 255.400 170.859 253.901 173.359 251.480 175.169 C 249.059 176.979 245.715 178.100 242.025 178.100 C 238.335 178.100 234.991 176.979 232.570 175.169 C 230.149 173.359 228.650 170.859 228.650 168.100 C 228.650 165.341 230.149 162.841 232.570 161.031 C 234.991 159.221 238.335 158.100 242.025 158.100 Z " transform="matrix(0.8163435459136963, 0, 0, 1.0295454263687134, 111.35, -1.8)"/>
    </g>
    <path id="ID0.8790839868597686" fill="url(#grad_2)" stroke="url(#grad_3)" stroke-width="2" d="M 236.650 169 C 240.306 169 243.618 170.451 246.017 172.795 C 248.415 175.140 249.900 178.377 249.900 181.950 C 249.900 185.523 248.415 188.760 246.017 191.105 C 243.618 193.449 240.306 194.900 236.650 194.900 C 232.994 194.900 229.682 193.449 227.283 191.105 C 224.885 188.760 223.400 185.523 223.400 181.950 C 223.400 178.377 224.885 175.140 227.283 172.795 C 229.682 170.451 232.994 169 236.650 169 Z " transform="matrix(0.7857432961463928, 0, 0, 0.7857432961463928, 123.55, 45.05)"/>
    <path id="ID0.05297797545790672" fill="#000000" stroke="none" d="M 308.100 179.500 C 308.955 179.500 309.730 180.074 310.291 181.002 C 310.853 181.930 311.200 183.211 311.200 184.625 C 311.200 186.039 310.853 187.320 310.291 188.248 C 309.730 189.176 308.955 189.750 308.100 189.750 C 307.245 189.750 306.470 189.176 305.909 188.248 C 305.347 187.320 305 186.039 305 184.625 C 305 183.211 305.347 181.930 305.909 181.002 C 306.470 180.074 307.245 179.500 308.100 179.500 Z " transform="matrix(0.6599903702735901, 0, 0, 0.6599903702735901, 108.45, 65.1)"/>
    <path id="ID0.6068230019882321" fill="none" stroke="#000000" stroke-width="2" stroke-linecap="round" d="M 321.050 189.500 L 319.600 191 L 317.500 192 L 314.850 192.100 " transform="matrix(0.86993008852005, 0, 0, 0.86993008852005, 37, 26.65)"/>
    <path id="ID0.05297797545790672" fill="#000000" stroke="none" d="M 308.100 179.500 C 308.955 179.500 309.730 180.074 310.291 181.002 C 310.853 181.930 311.200 183.211 311.200 184.625 C 311.200 186.039 310.853 187.320 310.291 188.248 C 309.730 189.176 308.955 189.750 308.100 189.750 C 307.245 189.750 306.470 189.176 305.909 188.248 C 305.347 187.320 305 186.039 305 184.625 C 305 183.211 305.347 181.930 305.909 181.002 C 306.470 180.074 307.245 179.500 308.100 179.500 Z " transform="matrix(0.6599903702735901, 0, 0, 0.6599903702735901, 102.3, 65.1)"/>
  </g>
</svg>