<svg version="1.1" width="93" height="56" viewBox="-1 -1 93 56" xmlns="http://www.w3.org/2000/svg" xmlns:xlink="http://www.w3.org/1999/xlink">
  <defs>
    <linearGradient id="grad_1" y2="1">
      <stop offset="0" stop-color="#B2B2B2" stop-opacity="1"/>
      <stop offset="1" stop-color="#E5E5E5" stop-opacity="1"/>
    </linearGradient>
  </defs>
  <!-- Exported by Scratch - http://scratch.mit.edu/ -->
  <g id="ID0.41157138906419277">
    <path id="ID0.6965752658434212" fill="#000000" d="M 118.170 86.887 C 118.170 91.639 114.316 95.492 109.565 95.492 L 35.773 95.492 C 31.021 95.492 27.169 91.638 27.169 86.887 L 27.169 49.424 C 27.169 44.672 31.021 40.820 35.773 40.820 L 109.564 40.820 C 114.318 40.820 118.169 44.672 118.169 49.424 L 118.169 86.887 L 118.170 86.887 Z " transform="matrix(1, 0, 0, 1, -27, -40)"/>
    <path id="ID0.8598260805010796" fill="url(#grad_1)" d="M 109.564 44.233 L 35.773 44.233 C 32.912 44.233 30.583 46.561 30.583 49.423 L 30.583 86.886 C 30.583 89.748 32.912 92.076 35.773 92.076 L 109.564 92.076 C 112.428 92.076 114.755 89.748 114.755 86.886 L 114.755 49.424 C 114.755 46.562 112.428 44.233 109.564 44.233 Z " transform="matrix(1, 0, 0, 1, -27, -40)"/>
  </g>
  <path id="ID0.6695641120895743" fill="none" stroke="#000000" stroke-width="4" d="M 241 160 L 267.250 160 L 267.250 201.250 L 241 201.250 L 241 160 Z " transform="matrix(1.0330578088760376, 0, 0, 0.9027624726295471, -203.85, -135.85)"/>
  <path id="ID0.05323190102353692" fill="#000000" stroke="none" d="M 248.500 160 L 267.500 160 L 267.500 200.750 L 248.500 200.750 L 248.500 160 Z " transform="matrix(0.8552631735801697, 0, 0, 1, -156.45, -153)"/>
  <path id="ID0.49560132483020425" fill="#FFFFFF" stroke="none" d="M 253 177.500 C 253.828 177.500 254.578 177.808 255.121 178.306 C 255.664 178.804 256 179.491 256 180.250 C 256 181.009 255.664 181.696 255.121 182.194 C 254.578 182.692 253.828 183 253 183 C 252.172 183 251.422 182.692 250.879 182.194 C 250.336 181.696 250 181.009 250 180.250 C 250 179.491 250.336 178.804 250.879 178.306 C 251.422 177.808 252.172 177.500 253 177.500 Z " transform="matrix(1, 0, 0, 1, -192.5, -152.75)"/>
  <g id="ID0.16137408139184117" transform="matrix(1, 0, 0, 1, -1.75, 0.25)">
    <path id="ID0.6278323931619525" fill="#000000" stroke="#000000" stroke-width="2.5" d="M 93.710 81.997 C 93.710 81.997 44.226 82.018 21.752 82.018 C 15.865 82.018 11.093 77.245 11.093 71.359 C 11.093 65.472 15.865 60.701 21.752 60.701 C 40.594 60.701 93.652 60.679 93.652 60.679 C 93.652 60.679 90.090 57.074 73.657 40.642 C 69.494 36.479 69.494 29.731 73.657 25.569 C 77.822 21.407 84.569 21.406 88.731 25.569 C 102.056 38.892 126.971 63.810 126.971 63.810 C 131.133 67.973 131.133 74.722 126.971 78.883 C 126.971 78.883 105.470 100.385 89.037 116.818 C 84.872 120.983 78.124 120.983 73.963 116.818 C 69.800 112.656 69.800 105.906 73.963 101.747 C 87.288 88.418 93.710 81.997 93.710 81.997 Z " transform="matrix(0.20457550883293152, 0, 0, 0.20457550883293152, 13.9, 12.7)"/>
  </g>
</svg>