<svg version="1.1" width="260" height="247" viewBox="-1 -1 260 247" xmlns="http://www.w3.org/2000/svg" xmlns:xlink="http://www.w3.org/1999/xlink">
  <defs>
    <linearGradient id="grad_1" y2="1">
      <stop offset="0" stop-color="#B2B2B2" stop-opacity="1"/>
      <stop offset="1" stop-color="#E5E5E5" stop-opacity="1"/>
    </linearGradient>
  </defs>
  <!-- Exported by Scratch - http://scratch.mit.edu/ -->
  <g id="ID0.41157138906419277">
    <path id="ID0.6965752658434212" fill="#000000" d="M 118.170 86.887 C 118.170 91.639 114.316 95.492 109.565 95.492 L 35.773 95.492 C 31.021 95.492 27.169 91.638 27.169 86.887 L 27.169 49.424 C 27.169 44.672 31.021 40.820 35.773 40.820 L 109.564 40.820 C 114.318 40.820 118.169 44.672 118.169 49.424 L 118.169 86.887 L 118.170 86.887 Z " transform="matrix(1, 0, 0, 1, -27, -40)"/>
    <path id="ID0.8598260805010796" fill="url(#grad_1)" d="M 109.564 44.233 L 35.773 44.233 C 32.912 44.233 30.583 46.561 30.583 49.423 L 30.583 86.886 C 30.583 89.748 32.912 92.076 35.773 92.076 L 109.564 92.076 C 112.428 92.076 114.755 89.748 114.755 86.886 L 114.755 49.424 C 114.755 46.562 112.428 44.233 109.564 44.233 Z " transform="matrix(1, 0, 0, 1, -27, -40)"/>
  </g>
  <g id="ID0.4922316437587142" transform="matrix(1, 0, 0, 1, -193.75, -198.5)">
    <path id="ID0.4126052944920957" fill="none" stroke="#000000" stroke-width="2" d="M 244 156 C 249.380 156 254.255 158.171 257.785 161.678 C 261.315 165.186 263.500 170.030 263.500 175.375 C 263.500 180.720 261.315 185.564 257.785 189.072 C 254.255 192.579 249.380 194.750 244 194.750 C 238.620 194.750 233.745 192.579 230.215 189.072 C 226.685 185.564 224.500 180.720 224.500 175.375 C 224.500 170.030 226.685 165.186 230.215 161.678 C 233.745 158.171 238.620 156 244 156 Z " transform="matrix(0.9852972626686096, 0, 0, 0.9852972626686096, -2.15, 53.75)"/>
    <path id="ID0.5288325767032802" fill="#000000" stroke="#000000" stroke-width="3" stroke-linecap="round" d="M 230.250 174.500 L 204 155.250 L 204 195 L 230.250 174.500 Z " transform="matrix(0.63667231798172, 0, 0, 0.47713834047317505, 101.85, 142.5)"/>
  </g>
</svg>