<svg version="1.1" width="93" height="56" viewBox="-1 -1 93 56" xmlns="http://www.w3.org/2000/svg" xmlns:xlink="http://www.w3.org/1999/xlink">
  <defs>
    <linearGradient id="grad_1" y2="1">
      <stop offset="0" stop-color="#B2B2B2" stop-opacity="1"/>
      <stop offset="1" stop-color="#E5E5E5" stop-opacity="1"/>
    </linearGradient>
    <linearGradient id="grad_2" y2="1">
      <stop offset="0" stop-color="#B7B7B7" stop-opacity="1"/>
      <stop offset="1" stop-color="#CBCBCB" stop-opacity="1"/>
    </linearGradient>
  </defs>
  <!-- Exported by Scratch - http://scratch.mit.edu/ -->
  <g id="ID0.41157138906419277">
    <path id="ID0.6965752658434212" fill="#000000" d="M 118.170 86.887 C 118.170 91.639 114.316 95.492 109.565 95.492 L 35.773 95.492 C 31.021 95.492 27.169 91.638 27.169 86.887 L 27.169 49.424 C 27.169 44.672 31.021 40.820 35.773 40.820 L 109.564 40.820 C 114.318 40.820 118.169 44.672 118.169 49.424 L 118.169 86.887 L 118.170 86.887 Z " transform="matrix(1, 0, 0, 1, -27, -40)"/>
    <path id="ID0.8598260805010796" fill="url(#grad_1)" d="M 109.564 44.233 L 35.773 44.233 C 32.912 44.233 30.583 46.561 30.583 49.423 L 30.583 86.886 C 30.583 89.748 32.912 92.076 35.773 92.076 L 109.564 92.076 C 112.428 92.076 114.755 89.748 114.755 86.886 L 114.755 49.424 C 114.755 46.562 112.428 44.233 109.564 44.233 Z " transform="matrix(1, 0, 0, 1, -27, -40)"/>
  </g>
  <path id="ID0.4907885859720409" fill="none" stroke="#000000" stroke-width="3" d="M 222.850 160.500 L 263 160.500 L 263 201.100 L 222.850 201.100 L 222.850 160.500 Z " transform="matrix(0.825459361076355, 0, 0, 0.7918552160263062, -156.1, -114.35)"/>
  <path id="ID0.986193738412112" fill="#000000" stroke="#000000" stroke-width="4" stroke-linecap="round" d="M 252.500 195.750 L 224.350 196.600 L 232 181.900 L 239.500 195 L 245.700 185.250 L 252.500 195.750 Z " transform="matrix(0.9800570011138916, 0, 0, 0.9800570011138916, -189.95, -149.5)"/>
  <g id="ID0.6394852218218148">
    <path id="ID0.5829690690152347" fill="none" stroke="#000000" stroke-width="2" stroke-linecap="round" d="M 303.500 193.500 L 291.350 193.500 L 297.100 202.100 L 303.500 193.500 Z " transform="matrix(0.42962780594825745, 0.5712946057319641, -0.5712946057319641, 0.42962780594825745, 39.35, -228.2)"/>
    <path id="ID0.3176744538359344" fill="url(#grad_2)" stroke="#000000" stroke-width="2" d="M 290.500 166 L 304.200 166 L 304.200 192.750 L 290.500 192.750 L 290.500 166 Z " transform="matrix(0.4276896119117737, 0.5687174201011658, -0.6413975954055786, 0.48234695196151733, 54.05, -237.95)"/>
    <path id="ID0.034465945325791836" fill="none" stroke="#000000" stroke-width="2" d="M 288.500 152.500 L 305.850 152.500 L 305.850 164.600 L 288.500 164.600 L 288.500 152.500 Z " transform="matrix(0.3334420621395111, 0.4433923065662384, -0.3538791835308075, 0.26612594723701477, 29.7, -161.15)"/>
    <path id="ID0.25921886693686247" fill="#000000" stroke="#000000" stroke-width="2" d="M 288.600 155.100 L 306 155.100 L 306 159 L 288.600 159 L 288.600 155.100 Z " transform="matrix(0.31769701838493347, 0.42245545983314514, -0.5597219467163086, 0.4209247827529907, 66.7, -179.25)"/>
    <path id="ID0.12133746780455112" fill="#000000" stroke="none" d="M 294.850 199 L 299 199 L 299 200.900 L 294.850 200.900 L 294.850 199 Z " transform="matrix(0.3625483512878418, 0.48209622502326965, -0.7612046003341675, 0.5724448561668396, 97.55, -230.35)"/>
  </g>
  <path id="ID0.7775015840306878" fill="#000000" stroke="none" d="M 229.650 168.500 C 230.436 168.500 231.149 168.842 231.665 169.394 C 232.181 169.946 232.500 170.709 232.500 171.550 C 232.500 172.391 232.181 173.154 231.665 173.706 C 231.149 174.258 230.436 174.600 229.650 174.600 C 228.864 174.600 228.151 174.258 227.635 173.706 C 227.119 173.154 226.800 172.391 226.800 171.550 C 226.800 170.709 227.119 169.946 227.635 169.394 C 228.151 168.842 228.864 168.500 229.650 168.500 Z " transform="matrix(1.0701754093170166, 0, 0, 1.0701754093170166, -210.05, -164.5)"/>
</svg>