<svg version="1.1" width="93" height="56" viewBox="-1 -1 93 56" xmlns="http://www.w3.org/2000/svg" xmlns:xlink="http://www.w3.org/1999/xlink">
  <defs>
    <linearGradient id="grad_1" y2="1">
      <stop offset="0" stop-color="#B2B2B2" stop-opacity="1"/>
      <stop offset="1" stop-color="#E5E5E5" stop-opacity="1"/>
    </linearGradient>
  </defs>
  <!-- Exported by Scratch - http://scratch.mit.edu/ -->
  <g id="ID0.41157138906419277" transform="matrix(1, 0, 0, 1, -27, -40)">
    <path id="ID0.6965752658434212" fill="#000000" d="M 118.170 86.887 C 118.170 91.639 114.316 95.492 109.565 95.492 L 35.773 95.492 C 31.021 95.492 27.169 91.638 27.169 86.887 L 27.169 49.424 C 27.169 44.672 31.021 40.820 35.773 40.820 L 109.564 40.820 C 114.318 40.820 118.169 44.672 118.169 49.424 L 118.169 86.887 L 118.170 86.887 Z "/>
    <path id="ID0.8598260805010796" fill="url(#grad_1)" d="M 109.564 44.233 L 35.773 44.233 C 32.912 44.233 30.583 46.561 30.583 49.423 L 30.583 86.886 C 30.583 89.748 32.912 92.076 35.773 92.076 L 109.564 92.076 C 112.428 92.076 114.755 89.748 114.755 86.886 L 114.755 49.424 C 114.755 46.562 112.428 44.233 109.564 44.233 Z "/>
  </g>
</svg>