<svg version="1.1" width="93" height="56" viewBox="-1 -1 93 56" xmlns="http://www.w3.org/2000/svg" xmlns:xlink="http://www.w3.org/1999/xlink">
  <defs>
    <linearGradient id="grad_1" y2="1">
      <stop offset="0" stop-color="#B2B2B2" stop-opacity="1"/>
      <stop offset="1" stop-color="#E5E5E5" stop-opacity="1"/>
    </linearGradient>
  </defs>
  <!-- Exported by Scratch - http://scratch.mit.edu/ -->
  <g id="ID0.41157138906419277">
    <path id="ID0.6965752658434212" fill="#000000" d="M 118.170 86.887 C 118.170 91.639 114.316 95.492 109.565 95.492 L 35.773 95.492 C 31.021 95.492 27.169 91.638 27.169 86.887 L 27.169 49.424 C 27.169 44.672 31.021 40.820 35.773 40.820 L 109.564 40.820 C 114.318 40.820 118.169 44.672 118.169 49.424 L 118.169 86.887 L 118.170 86.887 Z " transform="matrix(1, 0, 0, 1, -27, -40)"/>
    <path id="ID0.8598260805010796" fill="url(#grad_1)" d="M 109.564 44.233 L 35.773 44.233 C 32.912 44.233 30.583 46.561 30.583 49.423 L 30.583 86.886 C 30.583 89.748 32.912 92.076 35.773 92.076 L 109.564 92.076 C 112.428 92.076 114.755 89.748 114.755 86.886 L 114.755 49.424 C 114.755 46.562 112.428 44.233 109.564 44.233 Z " transform="matrix(1, 0, 0, 1, -27, -40)"/>
  </g>
  <g id="ID0.7184749189764261" transform="matrix(1, 0, 0, 1, 0.65, -2.5)">
    <path id="ID0.6088102594949305" fill="none" stroke="#000000" stroke-width="4" d="M 359.600 150.750 C 363.049 150.750 366.174 152.165 368.436 154.450 C 370.699 156.736 372.100 159.892 372.100 163.375 C 372.100 166.858 370.699 170.014 368.436 172.300 C 366.174 174.585 363.049 176 359.600 176 C 356.151 176 353.026 174.585 350.764 172.300 C 348.501 170.014 347.100 166.858 347.100 163.375 C 347.100 159.892 348.501 156.736 350.764 154.450 C 353.026 152.165 356.151 150.750 359.600 150.750 Z " transform="matrix(0.5940564274787903, 0, 0, 0.5940564274787903, -169.55, -77.35)"/>
    <path id="ID0.5357509674504399" fill="none" stroke="#000000" stroke-width="4" stroke-linecap="round" d="M 359.300 176.600 L 359.300 190.900 L 353.350 200.400 " transform="matrix(0.8857298493385315, 0, 0, 0.8857298493385315, -274.4, -128.05)"/>
    <path id="ID0.81565783591941" fill="none" stroke="#000000" stroke-width="4" stroke-linecap="round" d="M 359.600 191 L 365.350 200.400 " transform="matrix(0.8857298493385315, 0, 0, 0.8857298493385315, -274.4, -128.05)"/>
    <path id="ID0.9097183588892221" fill="none" stroke="#000000" stroke-width="4" stroke-linecap="round" d="M 353.200 184.500 L 358.200 177.600 " transform="matrix(0.8857298493385315, 0, 0, 0.8857298493385315, -274.4, -128.05)"/>
    <path id="ID0.046745788771659136" fill="none" stroke="#000000" stroke-width="4" stroke-linecap="round" d="M 360.500 177.250 L 365.850 184.400 " transform="matrix(0.8857298493385315, 0, 0, 0.8857298493385315, -274.4, -127.9)"/>
  </g>
</svg>