<svg version="1.1" width="333" height="201" viewBox="-1 -1 333 201" xmlns="http://www.w3.org/2000/svg" xmlns:xlink="http://www.w3.org/1999/xlink">
  <defs>
    <linearGradient id="grad_1" y2="1">
      <stop offset="0" stop-color="#B2B2B2" stop-opacity="1"/>
      <stop offset="1" stop-color="#E5E5E5" stop-opacity="1"/>
    </linearGradient>
  </defs>
  <!-- Exported by Scratch - http://scratch.mit.edu/ -->
  <g id="ID0.41157138906419277">
    <path id="ID0.6965752658434212" fill="#000000" d="M 118.170 86.887 C 118.170 91.639 114.316 95.492 109.565 95.492 L 35.773 95.492 C 31.021 95.492 27.169 91.638 27.169 86.887 L 27.169 49.424 C 27.169 44.672 31.021 40.820 35.773 40.820 L 109.564 40.820 C 114.318 40.820 118.169 44.672 118.169 49.424 L 118.169 86.887 L 118.170 86.887 Z " transform="matrix(1, 0, 0, 1, -27, -40)"/>
    <path id="ID0.8598260805010796" fill="url(#grad_1)" d="M 109.564 44.233 L 35.773 44.233 C 32.912 44.233 30.583 46.561 30.583 49.423 L 30.583 86.886 C 30.583 89.748 32.912 92.076 35.773 92.076 L 109.564 92.076 C 112.428 92.076 114.755 89.748 114.755 86.886 L 114.755 49.424 C 114.755 46.562 112.428 44.233 109.564 44.233 Z " transform="matrix(1, 0, 0, 1, -27, -40)"/>
  </g>
  <g id="ID0.8879720070399344" transform="matrix(0.8922305703163147, 0, 0, 0.8922305703163147, -232.3, -132.5)">
    <path id="ID0.12437315145507455" fill="none" stroke="#000000" stroke-width="10" d="M 314.350 163.400 C 319.523 163.400 324.210 165.456 327.605 168.778 C 330.999 172.100 333.100 176.687 333.100 181.750 C 333.100 186.813 330.999 191.400 327.605 194.722 C 324.210 198.044 319.523 200.100 314.350 200.100 C 309.177 200.100 304.490 198.044 301.095 194.722 C 297.701 191.400 295.600 186.813 295.600 181.750 C 295.600 176.687 297.701 172.100 301.095 168.778 C 304.490 165.456 309.177 163.400 314.350 163.400 Z " transform="matrix(0.6810027956962585, 0, 0, 0.6846140623092651, 97.9, 55.6)"/>
    <path id="ID0.2608839813619852" fill="#000000" stroke="none" d="M 308 160.100 L 314.850 160.100 L 314.850 167.500 L 308 167.500 L 308 160.100 Z " transform="matrix(1.1691176891326904, 0, 0, 1, -52.1, -0.05)"/>
    <path id="ID0.2608839813619852" fill="#000000" stroke="none" d="M 308 160.100 L 314.850 160.100 L 314.850 167.500 L 308 167.500 L 308 160.100 Z " transform="matrix(1.1691176891326904, 0, 0, 1, -51.9, 32.55)"/>
    <path id="ID0.2608839813619852" fill="#000000" stroke="none" d="M 308 160.100 L 314.850 160.100 L 314.850 167.500 L 308 167.500 L 308 160.100 Z " transform="matrix(1.1691176891326904, 0, 0, 1.1283783912658691, -36.05, -4.8)"/>
    <path id="ID0.2608839813619852" fill="#000000" stroke="none" d="M 308 160.100 L 314.850 160.100 L 314.850 167.500 L 308 167.500 L 308 160.100 Z " transform="matrix(1.1691176891326904, 0, 0, 1.1283783912658691, -68, -5.05)"/>
    <path id="ID0.2608839813619852" fill="#000000" stroke="none" d="M 308 160.100 L 314.850 160.100 L 314.850 167.500 L 308 167.500 L 308 160.100 Z " transform="matrix(0.8050134778022766, -0.8478145599365234, 0.7741729617118835, 0.7350896000862122, -77.5, 312.6)"/>
    <path id="ID0.2608839813619852" fill="#000000" stroke="none" d="M 308 160.100 L 314.850 160.100 L 314.850 167.500 L 308 167.500 L 308 160.100 Z " transform="matrix(0.8050134778022766, -0.8478145599365234, 0.7741729617118835, 0.7350896000862122, -54.35, 313.1)"/>
    <path id="ID0.2608839813619852" fill="#000000" stroke="none" d="M 308 160.100 L 314.850 160.100 L 314.850 167.500 L 308 167.500 L 308 160.100 Z " transform="matrix(0.8050134778022766, -0.8478145599365234, 0.7741729617118835, 0.7350896000862122, -53.4, 335.05)"/>
    <path id="ID0.2608839813619852" fill="#000000" stroke="none" d="M 308 160.100 L 314.850 160.100 L 314.850 167.500 L 308 167.500 L 308 160.100 Z " transform="matrix(0.8050134778022766, -0.8478145599365234, 0.7741729617118835, 0.7350896000862122, -77.35, 335.1)"/>
  </g>
</svg>