<svg version="1.1" width="58" height="59" viewBox="-1 -1 58 59" xmlns="http://www.w3.org/2000/svg" xmlns:xlink="http://www.w3.org/1999/xlink">
  <defs>
    <radialGradient id="grad_1" cx="0.0346" cy="0.804" r="1.25502">
      <stop offset="0" stop-color="#FF0000" stop-opacity="1"/>
      <stop offset="1" stop-color="#660000" stop-opacity="1"/>
    </radialGradient>
    <linearGradient id="grad_2" y2="1">
      <stop offset="0" stop-color="#FF0000" stop-opacity="1"/>
      <stop offset="1" stop-color="#660000" stop-opacity="1"/>
    </linearGradient>
  </defs>
  <!-- Exported by Scratch - http://scratch.mit.edu/ -->
  <g id="ID0.22708100313320756" transform="matrix(1, 0, 0, 1, -43, -40)">
    <path id="ID0.4076918298378587" fill="url(#grad_1)" d="M 83.121 69.479 L 97.200 55.322 C 100.442 52.063 100.427 46.775 97.169 43.534 C 95.598 41.970 93.510 41.109 91.292 41.109 C 89.058 41.109 86.958 41.982 85.381 43.567 L 71.538 57.485 L 57.898 43.365 C 56.312 41.724 54.183 40.820 51.901 40.820 C 49.730 40.820 47.673 41.652 46.111 43.159 C 42.805 46.353 42.714 51.639 45.906 54.946 L 59.778 69.308 L 45.698 83.465 C 42.457 86.723 42.470 92.011 45.729 95.252 C 47.301 96.817 49.390 97.679 51.606 97.679 C 53.840 97.679 55.940 96.806 57.516 95.220 L 71.360 81.300 L 85 95.422 C 86.584 97.064 88.713 97.967 90.994 97.967 L 90.994 97.967 C 93.167 97.967 95.223 97.136 96.786 95.628 C 100.093 92.434 100.182 87.147 96.989 83.841 L 83.121 69.479 Z "/>
    <path id="ID0.22767436876893044" fill="url(#grad_2)" d="M 80.712 69.461 L 95.982 54.108 C 98.559 51.517 98.548 47.329 95.957 44.752 C 93.367 42.176 89.179 42.188 86.602 44.779 L 71.519 59.943 L 56.661 44.560 C 54.122 41.932 49.935 41.859 47.308 44.397 C 44.680 46.936 44.607 51.123 47.146 53.751 L 62.188 69.326 L 46.919 84.679 C 44.343 87.271 44.354 91.457 46.943 94.034 C 49.535 96.610 53.722 96.599 56.298 94.009 L 71.380 78.844 L 86.239 94.228 C 88.776 96.855 92.966 96.928 95.592 94.391 C 98.220 91.851 98.293 87.665 95.753 85.037 L 80.712 69.461 Z "/>
  </g>
</svg>