<svg version="1.1" width="373" height="320" viewBox="-1 -1 373 320" xmlns="http://www.w3.org/2000/svg" xmlns:xlink="http://www.w3.org/1999/xlink">
  <defs>
    <linearGradient id="grad_1" y2="1">
      <stop offset="0" stop-color="#000000" stop-opacity="0"/>
      <stop offset="1" stop-color="#000000" stop-opacity="1"/>
    </linearGradient>
    <linearGradient id="grad_2" y2="1">
      <stop offset="0" stop-color="#000000" stop-opacity="0"/>
      <stop offset="1" stop-color="#000000" stop-opacity="1"/>
    </linearGradient>
  </defs>
  <!-- Exported by Scratch - http://scratch.mit.edu/ -->
  <g id="ID0.8796878848224878" transform="matrix(1.0990736484527588, 0, 0, 1.0990736484527588, -109.75, -25.8)">
    <g id="ID0.7446530545130372" transform="matrix(1, 0, 0, 1, 100, 23)">
      <path id="ID0.6695641120895743" fill="none" stroke="#FFFFFF" stroke-width="4" d="M 241 160 L 267.250 160 L 267.250 201.250 L 241 201.250 L 241 160 Z " transform="matrix(8.039107322692871, 0, 0, 7.025167942047119, -1792.45, -1109.35)"/>
      <path id="ID0.05323190102353692" fill="#FFFFFF" stroke="none" d="M 248.500 160 L 267.500 160 L 267.500 200.750 L 248.500 200.750 L 248.500 160 Z " transform="matrix(6.6555352210998535, 0, 0, 7.781856536865234, -1424.4, -1243.1)"/>
      <path id="ID0.49560132483020425" fill="#0026FF" stroke="none" d="M 253 177.500 C 253.828 177.500 254.578 177.808 255.121 178.306 C 255.664 178.804 256 179.491 256 180.250 C 256 181.009 255.664 181.696 255.121 182.194 C 254.578 182.692 253.828 183 253 183 C 252.172 183 251.422 182.692 250.879 182.194 C 250.336 181.696 250 181.009 250 180.250 C 250 179.491 250.336 178.804 250.879 178.306 C 251.422 177.808 252.172 177.500 253 177.500 Z " transform="matrix(7.781856536865234, 0, 0, 7.781856536865234, -1704.6, -1241.25)"/>
    </g>
    <g id="ID0.7612441447563469" transform="matrix(1, 0, 0, 1, 100, 23)">
      <path id="ID0.17136834608390927" fill="#000000" stroke="none" d="M 220.650 227.700 C 224.250 227.700 227.513 229.538 229.875 232.507 C 232.238 235.475 233.700 239.575 233.700 244.100 C 233.700 248.625 232.238 252.725 229.875 255.693 C 227.513 258.662 224.250 260.500 220.650 260.500 C 217.050 260.500 213.787 258.662 211.425 255.693 C 209.062 252.725 207.600 248.625 207.600 244.100 C 207.600 239.575 209.062 235.475 211.425 232.507 C 213.787 229.538 217.050 227.700 220.650 227.700 Z " transform="matrix(1.2826247215270996, 0, 0, 1.1878875494003296, -106.05, -132.25)"/>
      <path id="ID0.03928090538829565" fill="url(#grad_1)" stroke="none" d="M 211.750 103.250 L 227 103.250 L 227 201 L 211.750 201 L 211.750 103.250 Z " transform="matrix(-1.136148452758789, -1.3217543363571167, 0.6052555441856384, -0.6662801504135132, 308.1, 584.65)"/>
      <path id="ID0.03928090538829565" fill="url(#grad_2)" stroke="none" d="M 211.750 103.250 L 227 103.250 L 227 201 L 211.750 201 L 211.750 103.250 Z " transform="matrix(1.5200495719909668, -1.8241126537322998, 0.592758297920227, 0.6600808501243591, -275.9, 424.75)"/>
    </g>
    <g id="ID0.16137408139184117" transform="matrix(1, 0, 0, 1, 100, 23)">
      <path id="ID0.6278323931619525" fill="#FFFFFF" stroke="#FFFFFF" stroke-width="2.5" d="M 93.710 81.997 C 93.710 81.997 44.226 82.018 21.752 82.018 C 15.865 82.018 11.093 77.245 11.093 71.359 C 11.093 65.472 15.865 60.701 21.752 60.701 C 40.594 60.701 93.652 60.679 93.652 60.679 C 93.652 60.679 90.090 57.074 73.657 40.642 C 69.494 36.479 69.494 29.731 73.657 25.569 C 77.822 21.407 84.569 21.406 88.731 25.569 C 102.056 38.892 126.971 63.810 126.971 63.810 C 131.133 67.973 131.133 74.722 126.971 78.883 C 126.971 78.883 105.470 100.385 89.037 116.818 C 84.872 120.983 78.124 120.983 73.963 116.818 C 69.800 112.656 69.800 105.906 73.963 101.747 C 87.288 88.418 93.710 81.997 93.710 81.997 Z " transform="matrix(1.5919772386550903, 0, 0, 1.5919772386550903, -15.7, 44.45)"/>
    </g>
  </g>
</svg>