<svg version="1.1" width="186" height="186" viewBox="30 29 186 186" xmlns="http://www.w3.org/2000/svg" xmlns:xlink="http://www.w3.org/1999/xlink">
  <defs>
    <linearGradient id="grad_1" x2="1">
      <stop offset="0" stop-color="#000000" stop-opacity="1"/>
      <stop offset="1" stop-color="#565759" stop-opacity="1"/>
    </linearGradient>
    <linearGradient id="grad_2" y2="1">
      <stop offset="0" stop-color="#444345" stop-opacity="1"/>
      <stop offset="1" stop-color="#6B6C6F" stop-opacity="1"/>
    </linearGradient>
    <linearGradient id="grad_3" x2="1">
      <stop offset="0" stop-color="#000000" stop-opacity="1"/>
      <stop offset="1" stop-color="#565759" stop-opacity="1"/>
    </linearGradient>
    <linearGradient id="grad_4" y2="1">
      <stop offset="0" stop-color="#444345" stop-opacity="1"/>
      <stop offset="1" stop-color="#6B6C6F" stop-opacity="1"/>
    </linearGradient>
  </defs>
  <!-- Exported by Scratch - http://scratch.mit.edu/ -->
  <g id="ID0.6689050011336803" transform="matrix(1, 0, 0, 1, 0.15, 0)">
    <g id="ID0.16137408139184117">
      <path id="ID0.6278323931619525" fill="url(#grad_1)" stroke="url(#grad_2)" stroke-width="2.5" d="M 93.710 81.997 C 93.710 81.997 44.226 82.018 21.752 82.018 C 15.865 82.018 11.093 77.245 11.093 71.359 C 11.093 65.472 15.865 60.701 21.752 60.701 C 40.594 60.701 93.652 60.679 93.652 60.679 C 93.652 60.679 90.090 57.074 73.657 40.642 C 69.494 36.479 69.494 29.731 73.657 25.569 C 77.822 21.407 84.569 21.406 88.731 25.569 C 102.056 38.892 126.971 63.810 126.971 63.810 C 131.133 67.973 131.133 74.722 126.971 78.883 C 126.971 78.883 105.470 100.385 89.037 116.818 C 84.872 120.983 78.124 120.983 73.963 116.818 C 69.800 112.656 69.800 105.906 73.963 101.747 C 87.288 88.418 93.710 81.997 93.710 81.997 Z " transform="matrix(0.6874292492866516, -0.6856763362884521, -0.6856763362884521, -0.6874292492866516, 170.25, 173.6)"/>
    </g>
    <g id="ID0.16137408139184117">
      <path id="ID0.6278323931619525" fill="url(#grad_3)" stroke="url(#grad_4)" stroke-width="2.5" d="M 93.710 81.997 C 93.710 81.997 44.226 82.018 21.752 82.018 C 15.865 82.018 11.093 77.245 11.093 71.359 C 11.093 65.472 15.865 60.701 21.752 60.701 C 40.594 60.701 93.652 60.679 93.652 60.679 C 93.652 60.679 90.090 57.074 73.657 40.642 C 69.494 36.479 69.494 29.731 73.657 25.569 C 77.822 21.407 84.569 21.406 88.731 25.569 C 102.056 38.892 126.971 63.810 126.971 63.810 C 131.133 67.973 131.133 74.722 126.971 78.883 C 126.971 78.883 105.470 100.385 89.037 116.818 C 84.872 120.983 78.124 120.983 73.963 116.818 C 69.800 112.656 69.800 105.906 73.963 101.747 C 87.288 88.418 93.710 81.997 93.710 81.997 Z " transform="matrix(-0.6923493146896362, 0.6905837655067444, 0.6905837655067444, 0.6923493146896362, 75.95, 71.1)"/>
    </g>
  </g>
</svg>