<svg version="1.1" width="334" height="335" viewBox="-1 88 334 335" xmlns="http://www.w3.org/2000/svg" xmlns:xlink="http://www.w3.org/1999/xlink">
  <defs>
    <radialGradient id="grad_1" cx="0.5168" cy="0.0873" r="1.18651">
      <stop offset="0" stop-color="#E5E5E5" stop-opacity="1"/>
      <stop offset="1" stop-color="#BEBEBE" stop-opacity="1"/>
    </radialGradient>
    <radialGradient id="grad_2" cx="0.4988" cy="0.0103" r="1.28661">
      <stop offset="0" stop-color="#FFFFFF" stop-opacity="1"/>
      <stop offset="1" stop-color="#D8D8D8" stop-opacity="1"/>
    </radialGradient>
  </defs>
  <!-- Exported by Scratch - http://scratch.mit.edu/ -->
  <g id="ID0.1220208783634007">
    <path id="ID0.5158757716417313" fill="url(#grad_1)" d="M 70.875 28.632 C 47.991 28.632 29.375 47.249 29.375 70.132 C 29.375 93.014 47.992 111.632 70.875 111.632 C 93.759 111.632 112.375 93.014 112.375 70.132 C 112.375 47.250 93.759 28.632 70.875 28.632 Z " transform="matrix(4.010843276977539, 0, 0, 4.010843276977539, -117.3, -24.8)"/>
    <path id="ID0.27259744331240654" fill="url(#grad_2)" d="M 70.875 36.189 C 80.240 36.189 88.726 39.993 94.871 46.137 C 101.015 52.282 104.819 60.768 104.819 70.133 C 104.819 79.498 101.015 87.984 94.871 94.129 C 88.726 100.273 80.240 104.077 70.875 104.077 C 61.510 104.077 53.024 100.273 46.879 94.129 C 40.735 87.984 36.931 79.498 36.931 70.133 C 36.931 60.768 40.735 52.282 46.879 46.137 C 53.024 39.993 61.510 36.189 70.875 36.189 Z " transform="matrix(4.010843276977539, 0, 0, 4.010843276977539, -117.3, -24.8)"/>
  </g>
  <text id="ID0.8538453788496554" fill="#000000" x="228.5" y="172.75" text-anchor="start" font-family="Helvetica" font-size="22" transform="matrix(12.487075805664063, 0, 0, 12.487075805664063, 24, 0.75)">...</text>
</svg>