<svg version="1.1" width="263" height="192" viewBox="-1 -1 263 192" xmlns="http://www.w3.org/2000/svg" xmlns:xlink="http://www.w3.org/1999/xlink">
  <defs>
    <linearGradient id="grad_1" y2="1">
      <stop offset="0" stop-color="#B2B2B2" stop-opacity="1"/>
      <stop offset="1" stop-color="#E7E7E7" stop-opacity="1"/>
    </linearGradient>
  </defs>
  <!-- Exported by Scratch - http://scratch.mit.edu/ -->
  <g id="ID0.1220208783634007">
    <path id="ID0.5158757716417313" fill="#000000" d="M 70.875 28.632 C 47.991 28.632 29.375 47.249 29.375 70.132 C 29.375 93.014 47.992 111.632 70.875 111.632 C 93.759 111.632 112.375 93.014 112.375 70.132 C 112.375 47.250 93.759 28.632 70.875 28.632 Z " transform="matrix(1, 0, 0, 1, -29, -28)"/>
    <path id="ID0.27259744331240654" fill="url(#grad_1)" d="M 70.875 36.189 C 80.240 36.189 88.726 39.993 94.871 46.137 C 101.015 52.282 104.819 60.768 104.819 70.133 C 104.819 79.498 101.015 87.984 94.871 94.129 C 88.726 100.273 80.240 104.077 70.875 104.077 C 61.510 104.077 53.024 100.273 46.879 94.129 C 40.735 87.984 36.931 79.498 36.931 70.133 C 36.931 60.768 40.735 52.282 46.879 46.137 C 53.024 39.993 61.510 36.189 70.875 36.189 Z " transform="matrix(1, 0, 0, 1, -29, -28)"/>
  </g>
  <g id="ID0.3470903723500669" transform="matrix(1, 0, 0, 1, -196.5, -137)">
    <g id="ID0.16137408139184117" transform="matrix(1, 0, 0, 1, 199, 139)">
      <path id="ID0.6278323931619525" fill="#000000" stroke="#000000" stroke-width="2.5" d="M 93.710 81.997 C 93.710 81.997 44.226 82.018 21.752 82.018 C 15.865 82.018 11.093 77.245 11.093 71.359 C 11.093 65.472 15.865 60.701 21.752 60.701 C 40.594 60.701 93.652 60.679 93.652 60.679 C 93.652 60.679 90.090 57.074 73.657 40.642 C 69.494 36.479 69.494 29.731 73.657 25.569 C 77.822 21.407 84.569 21.406 88.731 25.569 C 102.056 38.892 126.971 63.810 126.971 63.810 C 131.133 67.973 131.133 74.722 126.971 78.883 C 126.971 78.883 105.470 100.385 89.037 116.818 C 84.872 120.983 78.124 120.983 73.963 116.818 C 69.800 112.656 69.800 105.906 73.963 101.747 C 87.288 88.418 93.710 81.997 93.710 81.997 Z " transform="matrix(-0.2145611196756363, 0, 0, 0.2145611196756363, 44.25, 34.05)"/>
    </g>
    <path id="ID0.27205586433410645" fill="none" stroke="#000000" stroke-width="5" stroke-linecap="round" d="M 234 188.500 L 259.250 188.750 L 259.750 166.750 L 221.750 166.250 "/>
  </g>
</svg>