<svg version="1.1" width="85" height="85" viewBox="-1 -1 85 85" xmlns="http://www.w3.org/2000/svg" xmlns:xlink="http://www.w3.org/1999/xlink">
  <defs>
    <linearGradient id="grad_1" y2="1">
      <stop offset="0" stop-color="#B2B2B2" stop-opacity="1"/>
      <stop offset="1" stop-color="#E7E7E7" stop-opacity="1"/>
    </linearGradient>
  </defs>
  <!-- Exported by Scratch - http://scratch.mit.edu/ -->
  <g id="ID0.1220208783634007">
    <path id="ID0.5158757716417313" fill="#000000" d="M 70.875 28.632 C 47.991 28.632 29.375 47.249 29.375 70.132 C 29.375 93.014 47.992 111.632 70.875 111.632 C 93.759 111.632 112.375 93.014 112.375 70.132 C 112.375 47.250 93.759 28.632 70.875 28.632 Z " transform="matrix(1, 0, 0, 1, -29, -28)"/>
    <path id="ID0.27259744331240654" fill="url(#grad_1)" d="M 70.875 36.189 C 80.240 36.189 88.726 39.993 94.871 46.137 C 101.015 52.282 104.819 60.768 104.819 70.133 C 104.819 79.498 101.015 87.984 94.871 94.129 C 88.726 100.273 80.240 104.077 70.875 104.077 C 61.510 104.077 53.024 100.273 46.879 94.129 C 40.735 87.984 36.931 79.498 36.931 70.133 C 36.931 60.768 40.735 52.282 46.879 46.137 C 53.024 39.993 61.510 36.189 70.875 36.189 Z " transform="matrix(1, 0, 0, 1, -29, -28)"/>
  </g>
  <path id="ID0.6584829143248498" fill="#000000" stroke="none" d="M 238 147 L 253.750 147 L 253.750 189.750 L 238 189.750 L 238 147 Z " transform="matrix(0.34217894077301025, -0.3383557200431824, 0.6660769581794739, 0.673603355884552, -150.3, 14.9)"/>
  <path id="ID0.9177512507885695" fill="#000000" stroke="none" d="M 230.750 158.500 C 233.785 158.500 236.535 159.775 238.526 161.834 C 240.517 163.893 241.750 166.737 241.750 169.875 C 241.750 173.013 240.517 175.857 238.526 177.916 C 236.535 179.975 233.785 181.250 230.750 181.250 C 227.715 181.250 224.965 179.975 222.974 177.916 C 220.983 175.857 219.750 173.013 219.750 169.875 C 219.750 166.737 220.983 163.893 222.974 161.834 C 224.965 159.775 227.715 158.500 230.750 158.500 Z " transform="matrix(1, 0, 0, 1, -199, -139)"/>
  <path id="ID0.6584829143248498" fill="#BDBDBD" stroke="none" d="M 238 147 L 253.750 147 L 253.750 189.750 L 238 189.750 L 238 147 Z " transform="matrix(0.4248482286930084, -0.4201013147830963, 0.2249617576599121, 0.22750377655029297, -113.95, 92)"/>
</svg>