<svg version="1.1" width="188" height="223" viewBox="-1 -1 188 223" xmlns="http://www.w3.org/2000/svg" xmlns:xlink="http://www.w3.org/1999/xlink">
  <defs>
    <linearGradient id="grad_1" y2="1">
      <stop offset="0" stop-color="#35BAF3" stop-opacity="1"/>
      <stop offset="1" stop-color="#1FA8E2" stop-opacity="1"/>
    </linearGradient>
  </defs>
  <!-- Exported by Scratch - http://scratch.mit.edu/ -->
  <g id="ID0.27850488806143403" transform="matrix(3.9415667057037354, 0, 0, 3.9415667057037354, -777.95, -538.45)">
    <g id="ID0.241454326082021" transform="matrix(1, 0, 0, 1, 197, 136)">
      <path id="ID0.6927021350711584" fill="#1989B8" d="M 70.875 28.632 C 47.991 28.632 29.375 47.249 29.375 70.132 C 29.375 93.014 47.992 111.632 70.875 111.632 C 93.759 111.632 112.375 93.014 112.375 70.132 C 112.375 47.250 93.759 28.632 70.875 28.632 Z " transform="matrix(1, 0, 0, 1, -29, -28)"/>
      <path id="ID0.06641278462484479" fill="url(#grad_1)" d="M 70.875 36.189 C 80.240 36.189 88.726 39.993 94.871 46.137 C 101.015 52.282 104.819 60.768 104.819 70.133 C 104.819 79.498 101.015 87.984 94.871 94.129 C 88.726 100.273 80.240 104.077 70.875 104.077 C 61.510 104.077 53.024 100.273 46.879 94.129 C 40.735 87.984 36.931 79.498 36.931 70.133 C 36.931 60.768 40.735 52.282 46.879 46.137 C 53.024 39.993 61.510 36.189 70.875 36.189 Z " transform="matrix(1, 0, 0, 1, -29, -28)"/>
    </g>
    <g id="ID0.13967987522482872" transform="matrix(0.19441001117229462, 0, 0, 0.19441001117229462, 219, 154.9)">
      <g id="ID0.6593791008926928">
        <path id="ID0.3442431343719363" fill="#FFFFFF" stroke="none" d="M 858 2185 C 678 2157 521 2086 411 1983 C 301 1882 253 1781 243 1630 C 229 1423 299 1259 447 1154 C 563 1070 718 1012 939 969 C 1154 928 1210 897 1210 821 C 1210 751 1152 715 1023 704 C 858 690 651 733 462 821 L 380 859 L 345 824 C 326 805 298 766 283 737 C 260 692 256 673 255 595 C 255 495 273 446 334 382 C 467 241 860 167 1227 215 C 1447 244 1608 316 1720 436 C 1922 652 1920 1005 1716 1205 C 1608 1311 1445 1383 1160 1451 C 1069 1473 982 1495 965 1502 C 917 1520 890 1550 890 1585 C 890 1666 960 1695 1150 1694 C 1260 1694 1307 1689 1405 1666 C 1471 1651 1555 1626 1592 1610 L 1659 1583 L 1687 1614 C 1731 1661 1749 1694 1766 1762 C 1823 1982 1664 2134 1327 2185 C 1201 2203 978 2203 858 2185 Z " transform="matrix(0.10000000149011612, 0, 0, -0.10000000149011612, 0, 242)"/>
      </g>
    </g>
  </g>
</svg>