<svg version="1.1" width="338" height="332" viewBox="-1 -1 338 332" xmlns="http://www.w3.org/2000/svg" xmlns:xlink="http://www.w3.org/1999/xlink">
  <defs>
    <linearGradient id="grad_1" y2="1">
      <stop offset="0" stop-color="#FEECD3" stop-opacity="1"/>
      <stop offset="1" stop-color="#F1CAB6" stop-opacity="1"/>
    </linearGradient>
    <linearGradient id="grad_2" y2="1">
      <stop offset="0" stop-color="#EFD4BA" stop-opacity="1"/>
      <stop offset="1" stop-color="#E8BAA8" stop-opacity="1"/>
    </linearGradient>
    <linearGradient id="grad_3" y2="1">
      <stop offset="0" stop-color="#B2B2B2" stop-opacity="1"/>
      <stop offset="1" stop-color="#000000" stop-opacity="1"/>
    </linearGradient>
    <linearGradient id="grad_4" y2="1">
      <stop offset="0" stop-color="#B2B2B2" stop-opacity="1"/>
      <stop offset="1" stop-color="#000000" stop-opacity="1"/>
    </linearGradient>
    <linearGradient id="grad_5" y2="1">
      <stop offset="0" stop-color="#B2B2B2" stop-opacity="1"/>
      <stop offset="1" stop-color="#000000" stop-opacity="1"/>
    </linearGradient>
    <linearGradient id="grad_6" y2="1">
      <stop offset="0" stop-color="#B2B2B2" stop-opacity="1"/>
      <stop offset="1" stop-color="#000000" stop-opacity="1"/>
    </linearGradient>
  </defs>
  <!-- Exported by Scratch - http://scratch.mit.edu/ -->
  <path id="ID0.8790839868597686" fill="url(#grad_1)" stroke="url(#grad_2)" stroke-width="2" d="M 236.650 169 C 240.306 169 243.618 170.451 246.017 172.795 C 248.415 175.140 249.900 178.377 249.900 181.950 C 249.900 185.523 248.415 188.760 246.017 191.105 C 243.618 193.449 240.306 194.900 236.650 194.900 C 232.994 194.900 229.682 193.449 227.283 191.105 C 224.885 188.760 223.400 185.523 223.400 181.950 C 223.400 178.377 224.885 175.140 227.283 172.795 C 229.682 170.451 232.994 169 236.650 169 Z " transform="matrix(11.789477348327637, 0, 0, 11.789477348327637, -2621.25, -1978.25)"/>
  <path id="ID0.05297797545790672" fill="url(#grad_3)" stroke="none" d="M 308.100 179.500 C 308.955 179.500 309.730 180.074 310.291 181.002 C 310.853 181.930 311.200 183.211 311.200 184.625 C 311.200 186.039 310.853 187.320 310.291 188.248 C 309.730 189.176 308.955 189.750 308.100 189.750 C 307.245 189.750 306.470 189.176 305.909 188.248 C 305.347 187.320 305 186.039 305 184.625 C 305 183.211 305.347 181.930 305.909 181.002 C 306.470 180.074 307.245 179.500 308.100 179.500 Z " transform="matrix(9.902650833129883, 0, 0, 9.902650833129883, -2840.1, -1631.1)"/>
  <path id="ID0.6068230019882321" fill="none" stroke="#000000" stroke-width="2" stroke-linecap="round" d="M 321.050 189.500 L 319.600 191 L 317.500 192 L 314.850 192.100 " transform="matrix(6.200002193450928, 0, 0, 6.200002193450928, -1739.75, -918.95)"/>
  <path id="ID0.05297797545790672" fill="url(#grad_4)" stroke="none" d="M 308.100 179.500 C 308.955 179.500 309.730 180.074 310.291 181.002 C 310.853 181.930 311.200 183.211 311.200 184.625 C 311.200 186.039 310.853 187.320 310.291 188.248 C 309.730 189.176 308.955 189.750 308.100 189.750 C 307.245 189.750 306.470 189.176 305.909 188.248 C 305.347 187.320 305 186.039 305 184.625 C 305 183.211 305.347 181.930 305.909 181.002 C 306.470 180.074 307.245 179.500 308.100 179.500 Z " transform="matrix(9.902650833129883, 0, 0, 9.902650833129883, -2932.2, -1631.1)"/>
  <path id="ID0.7017030296847224" fill="url(#grad_5)" stroke="url(#grad_6)" stroke-width="15" stroke-linecap="round" d="M 82 170 L 103 150.500 L 118.500 175 L 144 139.500 L 158 158.500 L 183.500 126 L 207 147 L 226 120.500 L 249.500 148 L 276.500 124.500 L 303.500 150 L 329 129.500 L 345.500 155.500 L 364.500 130 L 372.500 154 L 384 142.500 L 398.500 160 L 392.500 122 L 373.500 81.500 L 342 50 L 304 29.500 L 267.500 18 L 235.500 17 L 195.500 23.500 L 158 40 L 125.500 63.500 L 104 89.500 L 89 121 L 82 170 Z " transform="matrix(1, 0, 0, 1, -73, -9)"/>
</svg>