<svg version="1.1" width="115" height="266" viewBox="-1 -1 115 266" xmlns="http://www.w3.org/2000/svg" xmlns:xlink="http://www.w3.org/1999/xlink">
  <!-- Exported by Scratch - http://scratch.mit.edu/ -->
  <g id="ID0.7184749189764261" transform="matrix(1, 0, 0, 1, -236, -51)">
    <path id="ID0.6088102594949305" fill="none" stroke="#000000" stroke-width="4" d="M 359.600 150.750 C 363.049 150.750 366.174 152.165 368.436 154.450 C 370.699 156.736 372.100 159.892 372.100 163.375 C 372.100 166.858 370.699 170.014 368.436 172.300 C 366.174 174.585 363.049 176 359.600 176 C 356.151 176 353.026 174.585 350.764 172.300 C 348.501 170.014 347.100 166.858 347.100 163.375 C 347.100 159.892 348.501 156.736 350.764 154.450 C 353.026 152.165 356.151 150.750 359.600 150.750 Z " transform="matrix(3.904452085494995, 0, 0, 3.904452085494995, -1110.55, -529.35)"/>
    <path id="ID0.5357509674504399" fill="none" stroke="#000000" stroke-width="4" stroke-linecap="round" d="M 359.300 176.600 L 359.300 190.900 L 353.350 200.400 " transform="matrix(5.821483612060547, 0, 0, 5.821483612060547, -1799.7, -862.55)"/>
    <path id="ID0.81565783591941" fill="none" stroke="#000000" stroke-width="4" stroke-linecap="round" d="M 359.600 191 L 365.350 200.400 " transform="matrix(5.821483612060547, 0, 0, 5.821483612060547, -1799.7, -862.55)"/>
    <path id="ID0.9097183588892221" fill="none" stroke="#000000" stroke-width="4" stroke-linecap="round" d="M 353.200 184.500 L 358.200 177.600 " transform="matrix(5.821483612060547, 0, 0, 5.821483612060547, -1799.7, -862.55)"/>
    <path id="ID0.046745788771659136" fill="none" stroke="#000000" stroke-width="4" stroke-linecap="round" d="M 360.500 177.250 L 365.850 184.400 " transform="matrix(5.821483612060547, 0, 0, 5.821483612060547, -1799.7, -861.6)"/>
  </g>
</svg>