<svg version="1.1" width="262" height="253" viewBox="-1 -1 262 253" xmlns="http://www.w3.org/2000/svg" xmlns:xlink="http://www.w3.org/1999/xlink">
  <!-- Exported by Scratch - http://scratch.mit.edu/ -->
  <path id="ID0.06171830976381898" fill="#000000" stroke="#000000" stroke-width="4" d="M 244.750 159.750 C 250.406 159.750 255.531 161.963 259.242 165.538 C 262.953 169.114 265.250 174.051 265.250 179.500 C 265.250 184.949 262.953 189.886 259.242 193.462 C 255.531 197.037 250.406 199.250 244.750 199.250 C 239.094 199.250 233.969 197.037 230.258 193.462 C 226.547 189.886 224.250 184.949 224.250 179.500 C 224.250 174.051 226.547 169.114 230.258 165.538 C 233.969 161.963 239.094 159.750 244.750 159.750 Z " transform="matrix(5.791452884674072, 0, 0, 5.791452884674072, -1286.6, -912.95)"/>
  <text id="ID0.9087473638355732" fill="#FFFFFF" x="240" y="183" text-anchor="start" font-family="Helvetica" font-size="22" transform="matrix(8.060657501220703, 0, 0, 8.060657501220703, 60.1, 10.6)">?</text>
</svg>