<svg version="1.1" width="72" height="63" viewBox="-1 -1 72 63" xmlns="http://www.w3.org/2000/svg" xmlns:xlink="http://www.w3.org/1999/xlink">
  <!-- Exported by Scratch - http://scratch.mit.edu/ -->
  <g id="ID0.8620723588392138" transform="matrix(6.574995517730713, 0, 0, 6.574995517730713, 0, -3.55)">
    <path id="ID0.9306429885327816" fill="none" d="M 102.738 41.558 L 41.373 41.558 C 38.994 41.558 37.056 43.494 37.056 45.874 L 37.056 99.126 C 37.056 101.505 38.993 103.442 41.373 103.442 L 102.740 103.442 C 105.120 103.442 107.056 101.505 107.056 99.126 L 107.056 45.874 C 107.056 43.494 105.119 41.558 102.738 41.558 Z " transform="matrix(1, 0, 0, 1, -37, -41)"/>
    <g id="ID0.28741331212222576">
      <path id="ID0.22481029201298952" fill="#000000" d="M 72.752 46.056 L 43.383 71.458 L 53.458 71.458 L 53.458 95.394 L 67.188 95.394 L 67.188 78.797 L 78.314 78.797 L 78.314 95.394 L 92.045 95.394 L 92.045 71.458 L 102.120 71.458 L 72.752 46.056 " transform="matrix(1, 0, 0, 1, -37, -41)"/>
    </g>
  </g>
</svg>