<svg version="1.1" width="531" height="234" viewBox="-1 -1 531 234" xmlns="http://www.w3.org/2000/svg" xmlns:xlink="http://www.w3.org/1999/xlink">
  <defs>
    <linearGradient id="grad_1" y2="1">
      <stop offset="0" stop-color="#B7B7B7" stop-opacity="1"/>
      <stop offset="1" stop-color="#CBCBCB" stop-opacity="1"/>
    </linearGradient>
  </defs>
  <!-- Exported by Scratch - http://scratch.mit.edu/ -->
  <path id="ID0.4907885859720409" fill="none" stroke="#000000" stroke-width="3" d="M 222.850 160.500 L 263 160.500 L 263 201.100 L 222.850 201.100 L 222.850 160.500 Z " transform="matrix(5.5543999671936035, 0, 0, 5.328282356262207, -1229.4, -810.9)"/>
  <path id="ID0.986193738412112" fill="#000000" stroke="#000000" stroke-width="4" stroke-linecap="round" d="M 252.500 195.750 L 224.350 196.600 L 232 181.900 L 239.500 195 L 245.700 185.250 L 252.500 195.750 Z " transform="matrix(6.594666004180908, 0, 0, 6.594666004180908, -1457.15, -1047.45)"/>
  <g id="ID0.6394852218218148" transform="matrix(1, 0, 0, 1, -179, -37)">
    <path id="ID0.5829690690152347" fill="none" stroke="#000000" stroke-width="2" stroke-linecap="round" d="M 303.500 193.500 L 291.350 193.500 L 297.100 202.100 L 303.500 193.500 Z " transform="matrix(2.8909051418304443, 3.844161033630371, -3.844161033630371, 2.8909051418304443, 264.7, -1540)"/>
    <path id="ID0.3176744538359344" fill="url(#grad_1)" stroke="#000000" stroke-width="2" d="M 290.500 166 L 304.200 166 L 304.200 192.750 L 290.500 192.750 L 290.500 166 Z " transform="matrix(2.8778631687164307, 3.826819658279419, -4.315874099731445, 3.2456448078155518, 363.6, -1605.6)"/>
    <path id="ID0.034465945325791836" fill="none" stroke="#000000" stroke-width="2" d="M 288.500 152.500 L 305.850 152.500 L 305.850 164.600 L 288.500 164.600 L 288.500 152.500 Z " transform="matrix(2.243684768676758, 2.9835245609283447, -2.3812031745910645, 1.7907240390777588, 199.75, -1088.85)"/>
    <path id="ID0.25921886693686247" fill="#000000" stroke="#000000" stroke-width="2" d="M 288.600 155.100 L 306 155.100 L 306 159 L 288.600 159 L 288.600 155.100 Z " transform="matrix(2.1377384662628174, 2.8426434993743896, -3.7662901878356934, 2.832343578338623, 448.75, -1210.6)"/>
    <path id="ID0.12133746780455112" fill="#000000" stroke="none" d="M 294.850 199 L 299 199 L 299 200.900 L 294.850 200.900 L 294.850 199 Z " transform="matrix(2.4395368099212646, 3.243957757949829, -5.122038841247559, 3.851901054382324, 656.35, -1554.45)"/>
  </g>
  <path id="ID0.7775015840306878" fill="#000000" stroke="none" d="M 229.650 168.500 C 230.436 168.500 231.149 168.842 231.665 169.394 C 232.181 169.946 232.500 170.709 232.500 171.550 C 232.500 172.391 232.181 173.154 231.665 173.706 C 231.149 174.258 230.436 174.600 229.650 174.600 C 228.864 174.600 228.151 174.258 227.635 173.706 C 227.119 173.154 226.800 172.391 226.800 171.550 C 226.800 170.709 227.119 169.946 227.635 169.394 C 228.151 168.842 228.864 168.500 229.650 168.500 Z " transform="matrix(7.201059818267822, 0, 0, 7.201059818267822, -1592.4, -1148.35)"/>
</svg>