<svg version="1.1" width="42" height="42" viewBox="-1 -1 42 42" xmlns="http://www.w3.org/2000/svg" xmlns:xlink="http://www.w3.org/1999/xlink">
  <!-- Exported by Scratch - http://scratch.mit.edu/ -->
  <g id="ID0.4922316437587142" transform="matrix(6.596006393432617, 0, 0, 6.596006393432617, -160.2, -52.2)">
    <path id="ID0.4126052944920957" fill="none" stroke="#000000" stroke-width="2" d="M 244 156 C 249.380 156 254.255 158.171 257.785 161.678 C 261.315 165.186 263.500 170.030 263.500 175.375 C 263.500 180.720 261.315 185.564 257.785 189.072 C 254.255 192.579 249.380 194.750 244 194.750 C 238.620 194.750 233.745 192.579 230.215 189.072 C 226.685 185.564 224.500 180.720 224.500 175.375 C 224.500 170.030 226.685 165.186 230.215 161.678 C 233.745 158.171 238.620 156 244 156 Z " transform="matrix(0.9852972626686096, 0, 0, 0.9852972626686096, -195.9, -144.75)"/>
    <path id="ID0.5288325767032802" fill="#000000" stroke="#000000" stroke-width="3" stroke-linecap="round" d="M 230.250 174.500 L 204 155.250 L 204 195 L 230.250 174.500 Z " transform="matrix(0.63667231798172, 0, 0, 0.47713834047317505, -91.9, -56)"/>
  </g>
</svg>