<svg version="1.1" width="227" height="270" viewBox="-1 0 227 270" xmlns="http://www.w3.org/2000/svg" xmlns:xlink="http://www.w3.org/1999/xlink">
  <defs>
    <linearGradient id="grad_1" y2="1">
      <stop offset="0" stop-color="#C1C1C1" stop-opacity="1"/>
      <stop offset="1" stop-color="#D8D8D8" stop-opacity="1"/>
    </linearGradient>
    <linearGradient id="grad_2" y2="1">
      <stop offset="0" stop-color="#666666" stop-opacity="1"/>
      <stop offset="1" stop-color="#CCCCCC" stop-opacity="1"/>
    </linearGradient>
  </defs>
  <!-- Exported by Scratch - http://scratch.mit.edu/ -->
  <g id="ID0.09332405077293515" transform="matrix(1, 0, 0, 1, -195, -45)">
    <g id="ID0.44667832227423787">
      <path id="ID0.9966010181233287" fill="#666666" stroke="#666666" stroke-width="2" d="M 227 168.250 L 258.650 168.250 L 258.650 201.500 L 227 201.500 L 227 168.250 Z " transform="matrix(5.84425687789917, 0, 0, 5.84425687789917, -1125.5, -868.7)"/>
      <path id="ID0.9879797380417585" fill="none" stroke="#666666" stroke-width="2" d="M 242.025 158.100 C 245.715 158.100 249.059 159.221 251.480 161.031 C 253.901 162.841 255.400 165.341 255.400 168.100 C 255.400 170.859 253.901 173.359 251.480 175.169 C 249.059 176.979 245.715 178.100 242.025 178.100 C 238.335 178.100 234.991 176.979 232.570 175.169 C 230.149 173.359 228.650 170.859 228.650 168.100 C 228.650 165.341 230.149 162.841 232.570 161.031 C 234.991 159.221 238.335 158.100 242.025 158.100 Z " transform="matrix(4.923624038696289, 0, 0, 6.209511756896973, -897.5, -929.4)"/>
    </g>
    <g id="ID0.44667832227423787">
      <path id="ID0.9966010181233287" fill="#000000" stroke="#000000" stroke-width="2" d="M 227 168.250 L 258.650 168.250 L 258.650 201.500 L 227 201.500 L 227 168.250 Z " transform="matrix(5.84425687789917, 0, 0, 5.84425687789917, -1096.3, -869.4)"/>
      <path id="ID0.9879797380417585" fill="none" stroke="#000000" stroke-width="2" d="M 242.025 158.100 C 245.715 158.100 249.059 159.221 251.480 161.031 C 253.901 162.841 255.400 165.341 255.400 168.100 C 255.400 170.859 253.901 173.359 251.480 175.169 C 249.059 176.979 245.715 178.100 242.025 178.100 C 238.335 178.100 234.991 176.979 232.570 175.169 C 230.149 173.359 228.650 170.859 228.650 168.100 C 228.650 165.341 230.149 162.841 232.570 161.031 C 234.991 159.221 238.335 158.100 242.025 158.100 Z " transform="matrix(4.923624038696289, 0, 0, 6.209511756896973, -868.35, -930.05)"/>
    </g>
    <path id="ID0.8790839868597686" fill="url(#grad_1)" stroke="url(#grad_2)" stroke-width="2" d="M 236.650 169 C 240.306 169 243.618 170.451 246.017 172.795 C 248.415 175.140 249.900 178.377 249.900 181.950 C 249.900 185.523 248.415 188.760 246.017 191.105 C 243.618 193.449 240.306 194.900 236.650 194.900 C 232.994 194.900 229.682 193.449 227.283 191.105 C 224.885 188.760 223.400 185.523 223.400 181.950 C 223.400 178.377 224.885 175.140 227.283 172.795 C 229.682 170.451 232.994 169 236.650 169 Z " transform="matrix(5.447638034820557, 0, 0, 5.447638034820557, -964.25, -791.6)"/>
    <path id="ID0.05297797545790672" fill="#000000" stroke="none" d="M 308.100 179.500 C 308.955 179.500 309.730 180.074 310.291 181.002 C 310.853 181.930 311.200 183.211 311.200 184.625 C 311.200 186.039 310.853 187.320 310.291 188.248 C 309.730 189.176 308.955 189.750 308.100 189.750 C 307.245 189.750 306.470 189.176 305.909 188.248 C 305.347 187.320 305 186.039 305 184.625 C 305 183.211 305.347 181.930 305.909 181.002 C 306.470 180.074 307.245 179.500 308.100 179.500 Z " transform="matrix(4.575780391693115, 0, 0, 4.575780391693115, -1068.85, -652.45)"/>
    <path id="ID0.6068230019882321" fill="none" stroke="#000000" stroke-width="2" stroke-linecap="round" d="M 321.050 189.500 L 319.600 191 L 317.500 192 L 314.850 192.100 " transform="matrix(6.031313896179199, 0, 0, 6.031313896179199, -1564.05, -919)"/>
    <path id="ID0.05297797545790672" fill="#000000" stroke="none" d="M 308.100 179.500 C 308.955 179.500 309.730 180.074 310.291 181.002 C 310.853 181.930 311.200 183.211 311.200 184.625 C 311.200 186.039 310.853 187.320 310.291 188.248 C 309.730 189.176 308.955 189.750 308.100 189.750 C 307.245 189.750 306.470 189.176 305.909 188.248 C 305.347 187.320 305 186.039 305 184.625 C 305 183.211 305.347 181.930 305.909 181.002 C 306.470 180.074 307.245 179.500 308.100 179.500 Z " transform="matrix(4.575780391693115, 0, 0, 4.575780391693115, -1111.4, -652.45)"/>
  </g>
</svg>