{
    "asset" : {
        "generator" : "Khronos glTF Blender I/O v3.4.50",
        "version" : "2.0"
    },
    "scene" : 0,
    "scenes" : [
        {
            "name" : "Scene",
            "nodes" : [
                0,
                1
            ]
        }
    ],
    "nodes" : [
        {
            "mesh" : 0,
            "name" : "Hair3",
            "rotation" : [
                0.00014448515139520168,
                -1,
                4.995762719772756e-05,
                2.5955364435503725e-06
            ],
            "scale" : [
                0.2889670133590698,
                0.2889670133590698,
                0.2889670431613922
            ],
            "translation" : [
                0,
                1.2479970455169678,
                0.0028709324542433023
            ]
        },
        {
            "mesh" : 1,
            "name" : "Base Mesh",
            "rotation" : [
                0,
                1,
                0,
                0
            ]
        }
    ],
    "materials" : [
        {
            "name" : "Material_0",
            "pbrMetallicRoughness" : {
                "baseColorTexture" : {
                    "index" : 0
                },
                "metallicFactor" : 0
            }
        },
        {
            "name" : "Material_1",
            "pbrMetallicRoughness" : {
                "baseColorTexture" : {
                    "index" : 1
                },
                "metallicFactor" : 0
            }
        },
        {
            "name" : "Material_2",
            "pbrMetallicRoughness" : {
                "baseColorTexture" : {
                    "index" : 2
                },
                "metallicFactor" : 0
            }
        },
        {
            "name" : "Material_3",
            "pbrMetallicRoughness" : {
                "baseColorTexture" : {
                    "index" : 3
                },
                "metallicFactor" : 0
            }
        }
    ],
    "meshes" : [
        {
            "name" : "Mesh_0",
            "primitives" : [
                {
                    "attributes" : {
                        "POSITION" : 0,
                        "TEXCOORD_0" : 1,
                        "NORMAL" : 2
                    },
                    "indices" : 3,
                    "material" : 0
                }
            ]
        },
        {
            "name" : "Mesh_1",
            "primitives" : [
                {
                    "attributes" : {
                        "POSITION" : 4,
                        "TEXCOORD_0" : 5,
                        "NORMAL" : 6
                    },
                    "indices" : 7,
                    "material" : 1
                },
                {
                    "attributes" : {
                        "POSITION" : 8,
                        "TEXCOORD_0" : 9,
                        "NORMAL" : 10
                    },
                    "indices" : 11,
                    "material" : 2
                },
                {
                    "attributes" : {
                        "POSITION" : 12,
                        "TEXCOORD_0" : 13,
                        "NORMAL" : 14
                    },
                    "indices" : 15,
                    "material" : 3
                }
            ]
        }
    ],
    "textures" : [
        {
            "sampler" : 0,
            "source" : 0
        },
        {
            "sampler" : 0,
            "source" : 1
        },
        {
            "sampler" : 0,
            "source" : 2
        },
        {
            "sampler" : 0,
            "source" : 3
        }
    ],
    "images" : [
        {
            "bufferView" : 4,
            "mimeType" : "image/png",
            "name" : "hair"
        },
        {
            "bufferView" : 9,
            "mimeType" : "image/png",
            "name" : "pale"
        },
        {
            "bufferView" : 14,
            "mimeType" : "image/png",
            "name" : "face_grey_xl_pale"
        },
        {
            "bufferView" : 19,
            "mimeType" : "image/png",
            "name" : "generic_female_pale"
        }
    ],
    "accessors" : [
        {
            "bufferView" : 0,
            "componentType" : 5126,
            "count" : 260,
            "max" : [
                1.056746006011963,
                1.0775949954986572,
                1.0260759592056274
            ],
            "min" : [
                -1.056746006011963,
                -1.5743379592895508,
                -1.0775940418243408
            ],
            "type" : "VEC3"
        },
        {
            "bufferView" : 1,
            "componentType" : 5126,
            "count" : 260,
            "type" : "VEC2"
        },
        {
            "bufferView" : 2,
            "componentType" : 5126,
            "count" : 260,
            "type" : "VEC3"
        },
        {
            "bufferView" : 3,
            "componentType" : 5123,
            "count" : 1248,
            "type" : "SCALAR"
        },
        {
            "bufferView" : 5,
            "componentType" : 5126,
            "count" : 96,
            "max" : [
                0.2842560112476349,
                1.504318118095398,
                0.2676032781600952
            ],
            "min" : [
                -0.2842560112476349,
                0.9358051419258118,
                -0.2792717218399048
            ],
            "type" : "VEC3"
        },
        {
            "bufferView" : 6,
            "componentType" : 5126,
            "count" : 96,
            "type" : "VEC2"
        },
        {
            "bufferView" : 7,
            "componentType" : 5126,
            "count" : 96,
            "type" : "VEC3"
        },
        {
            "bufferView" : 8,
            "componentType" : 5123,
            "count" : 432,
            "type" : "SCALAR"
        },
        {
            "bufferView" : 10,
            "componentType" : 5126,
            "count" : 20,
            "max" : [
                0.24617299437522888,
                1.3288421630859375,
                0.289240300655365
            ],
            "min" : [
                -0.24617299437522888,
                1.0190621614456177,
                0.10548428446054459
            ],
            "type" : "VEC3"
        },
        {
            "bufferView" : 11,
            "componentType" : 5126,
            "count" : 20,
            "type" : "VEC2"
        },
        {
            "bufferView" : 12,
            "componentType" : 5126,
            "count" : 20,
            "type" : "VEC3"
        },
        {
            "bufferView" : 13,
            "componentType" : 5123,
            "count" : 72,
            "type" : "SCALAR"
        },
        {
            "bufferView" : 15,
            "componentType" : 5126,
            "count" : 1426,
            "max" : [
                0.6752279996871948,
                0.9802521467208862,
                0.1493702530860901
            ],
            "min" : [
                -0.6752279996871948,
                -0.0042808772996068,
                -0.0986437126994133
            ],
            "type" : "VEC3"
        },
        {
            "bufferView" : 16,
            "componentType" : 5126,
            "count" : 1426,
            "type" : "VEC2"
        },
        {
            "bufferView" : 17,
            "componentType" : 5126,
            "count" : 1426,
            "type" : "VEC3"
        },
        {
            "bufferView" : 18,
            "componentType" : 5123,
            "count" : 6576,
            "type" : "SCALAR"
        }
    ],
    "bufferViews" : [
        {
            "buffer" : 0,
            "byteLength" : 3120,
            "byteOffset" : 0,
            "target" : 34962
        },
        {
            "buffer" : 0,
            "byteLength" : 2080,
            "byteOffset" : 3120,
            "target" : 34962
        },
        {
            "buffer" : 0,
            "byteLength" : 3120,
            "byteOffset" : 5200,
            "target" : 34962
        },
        {
            "buffer" : 0,
            "byteLength" : 2496,
            "byteOffset" : 8320,
            "target" : 34963
        },
        {
            "buffer" : 0,
            "byteLength" : 97,
            "byteOffset" : 10816
        },
        {
            "buffer" : 0,
            "byteLength" : 1152,
            "byteOffset" : 10916,
            "target" : 34962
        },
        {
            "buffer" : 0,
            "byteLength" : 768,
            "byteOffset" : 12068,
            "target" : 34962
        },
        {
            "buffer" : 0,
            "byteLength" : 1152,
            "byteOffset" : 12836,
            "target" : 34962
        },
        {
            "buffer" : 0,
            "byteLength" : 864,
            "byteOffset" : 13988,
            "target" : 34963
        },
        {
            "buffer" : 0,
            "byteLength" : 272,
            "byteOffset" : 14852
        },
        {
            "buffer" : 0,
            "byteLength" : 240,
            "byteOffset" : 15124,
            "target" : 34962
        },
        {
            "buffer" : 0,
            "byteLength" : 160,
            "byteOffset" : 15364,
            "target" : 34962
        },
        {
            "buffer" : 0,
            "byteLength" : 240,
            "byteOffset" : 15524,
            "target" : 34962
        },
        {
            "buffer" : 0,
            "byteLength" : 144,
            "byteOffset" : 15764,
            "target" : 34963
        },
        {
            "buffer" : 0,
            "byteLength" : 19820,
            "byteOffset" : 15908
        },
        {
            "buffer" : 0,
            "byteLength" : 17112,
            "byteOffset" : 35728,
            "target" : 34962
        },
        {
            "buffer" : 0,
            "byteLength" : 11408,
            "byteOffset" : 52840,
            "target" : 34962
        },
        {
            "buffer" : 0,
            "byteLength" : 17112,
            "byteOffset" : 64248,
            "target" : 34962
        },
        {
            "buffer" : 0,
            "byteLength" : 13152,
            "byteOffset" : 81360,
            "target" : 34963
        },
        {
            "buffer" : 0,
            "byteLength" : 114756,
            "byteOffset" : 94512
        }
    ],
    "samplers" : [
        {
            "magFilter" : 9729,
            "minFilter" : 9987
        }
    ],
    "buffers" : [
        {
            "byteLength" : 209268,
            "uri" : "data:application/octet-stream;base64,"
        }
    ]
}
